<svg width="180" height="180" viewBox="0 0 180 180" fill="none" xmlns="http://www.w3.org/2000/svg">
<path d="M123.739 44.0634C123.351 35.0152 119.591 26.5104 113.596 20.5243C107.266 14.1959 98.534 10.2855 88.8842 10.2855C70.0902 10.2855 54.343 25.6561 53.5412 44.2418L43.1233 49.0372C43.0159 46.7393 43.0611 44.4692 43.1233 43.6996C44.4919 26.8992 52.4699 14.2892 66.8241 6.19615C74.0556 2.13017 81.4971 0.0621947 88.8842 0C96.2712 0.0621947 103.705 2.13017 110.936 6.19615C125.291 14.2815 133.269 26.8992 134.637 43.6996C134.715 44.6169 134.8 47.0069 134.637 49.0372L123.739 44.0634Z" fill="#D9AD4E"/>
<path d="M137.836 54.3218C136.553 57.3149 133.796 59.7063 131.86 62.3496L123.84 58.9446L92.4567 45.5805C90.8937 44.9119 89.1286 44.8964 87.5501 45.5339L43.3755 64.099C41.3693 61.689 38.5904 58.7531 37.043 56.0166C42.4239 53.8242 48.562 51.248 53.9351 49.0168C64.1915 44.7487 74.44 40.465 84.7741 36.3835C88.8953 34.6809 92.9154 35.7771 93.833 36.1503C103.747 40.0841 113.817 44.3055 123.848 48.4881C127.868 50.1596 131.872 51.8233 135.877 53.4637L137.836 54.3218Z" fill="#D9AD4E"/>
<path d="M37.3104 115.778C38.5831 136.396 63.9889 156.53 86.5787 168.656C88.7351 169.813 91.3168 169.813 93.4734 168.656C116.063 156.535 141.469 136.447 142.742 115.829C143.223 97.3124 143.133 90.9166 142.945 89.5154H152.732V115.829C149.807 142.906 122.294 164.581 95.4326 177.478C92.014 179.119 88.0379 179.119 84.6195 177.477C57.7578 164.575 30.2454 142.856 27.3203 115.778V89.4648H37.1072C36.919 90.8661 36.8288 97.2619 37.3104 115.778Z" fill="#D9AD4E"/>
<path d="M95.8558 145.294C95.8558 146.942 95.1171 148.419 93.943 149.406C93.5075 149.772 93.2509 150.3 93.2509 150.868V156.201C93.2509 157.717 92.0068 158.961 90.4905 158.961H90.4827C88.9664 158.961 87.7223 157.717 87.7223 156.201V150.876C87.7223 150.3 87.4501 149.764 87.0069 149.391C85.5917 148.194 84.8063 146.266 85.2262 144.182C85.6384 142.137 87.2868 140.474 89.3319 140.054C92.8077 139.331 95.8636 141.966 95.8636 145.302L95.8558 145.294Z" fill="#D9AD4E"/>
<path d="M115.812 117.958C114.172 118.805 112.687 117.904 111.753 116.745C109.786 114.273 107.788 111.777 105.805 109.329C105.323 108.753 104.942 108.1 104.273 108.466C103.356 108.955 104.009 109.904 104.009 109.904C104.009 109.904 106.932 113.597 107.928 114.856C108.752 115.906 109.584 116.947 110.369 118.044C111.753 119.972 112.251 121.324 110.735 122.506C108.806 123.999 107.212 123.447 105.735 121.604C103.814 119.179 102.073 116.776 100.152 114.343C99.6931 113.744 98.7989 113.161 98.2624 113.667C97.9047 114.001 98.0369 114.677 98.4179 115.175C100.144 117.484 101.956 119.731 103.62 122.086C104.942 123.952 105.128 125.188 103.775 126.207C101.917 127.614 100.782 126.922 99.3199 125.212C97.1971 122.708 93.1303 117.422 93.1303 117.422C93.1303 117.422 92.4771 116.8 91.9406 117.492C91.5907 117.943 91.8473 118.526 91.8473 118.526C91.8473 118.526 94.9887 122.809 96.5906 124.916C97.5003 126.113 97.8658 127.264 96.6294 128.461C95.8985 129.184 95.5331 129.853 94.5999 129.449C93.628 129.021 93.5969 128.282 93.6979 127.349C94.1412 123.167 92.516 121.317 88.2549 121.083C87.4617 121.029 87.2051 120.594 86.8941 120.003C85.5644 117.476 84.3436 116.862 81.6221 117.523C80.5645 117.779 80.0202 117.647 79.4993 116.574C77.6175 112.726 74.3128 112.283 71.4202 115.385C71.0391 115.805 70.6737 116.24 70.3471 116.699C69.7794 117.499 69.2274 117.647 68.512 116.831C65.2928 113.146 61.3427 110.495 56.8171 108.784C55.6822 108.355 55.0578 108.017 54.6118 108.017C53.5414 110.247 53.5979 110.028 52.8125 112.189C52.3071 113.597 51.6384 113.566 50.231 113.216C46.5063 112.291 40.7444 109.189 34.9514 104.959C32.3698 103.07 29.7883 100.963 27.3855 98.7166C27.2456 88.5788 27.1523 73.6676 27.1134 65.6989C27.0978 62.3715 29.0807 59.3551 32.1521 58.0645C34.516 57.0694 36.9809 56.0277 37.8052 55.6934C39.3526 58.4299 41.1954 61.0266 43.2016 63.4366C49.6089 71.1565 57.6336 77.0184 62.8123 79.6383C64.4452 80.478 65.0517 81.1932 64.2586 83.0046C63.8231 84.0075 62.5401 85.3836 63.6521 86.2387C65.1217 87.3816 66.7858 88.7265 68.9708 88.1979C70.6037 87.8014 71.4202 86.9929 73.0609 86.5964C73.644 86.4487 73.9551 86.3942 74.1961 86.5964C74.8726 87.1561 74.3361 87.6459 74.0717 88.2445C72.9675 90.6701 72.4621 91.9684 71.4046 94.5884C70.697 96.3532 71.5057 99.2452 72.9909 100.233C75.2303 101.717 79.196 101.632 81.5132 100.559C83.6205 99.5873 85.3234 98.0635 86.5364 96.1588C87.7261 94.3085 89.1646 94.7128 91.1397 94.7594C96.8472 94.9305 99.8642 96.5631 104.903 98.7632C111.645 101.725 113.744 108.232 117.181 113.737C118.052 115.136 117.562 117.087 115.805 117.997L115.812 117.958Z" fill="#D9AD4E"/>
<path d="M151.542 92.5834C151.495 92.6378 151.448 92.7 151.402 92.7544C149.271 95.2966 146.868 97.7611 144.162 100.055C140.935 102.791 137.273 105.279 133.144 107.37C130.757 108.583 130.819 108.7 129.59 106.274C127.856 102.83 127.88 102.877 124.443 104.665C122.367 105.761 121.776 106.974 120.462 108.801C119.56 110.06 118.852 110.472 117.942 108.801C116.846 106.826 115.594 104.952 114.482 103.001C109.91 95.491 99.7312 93.6796 98.8136 93.3608C95.68 92.2724 92.4608 91.8837 89.1405 91.5572C86.8777 91.3473 85.4392 91.6738 84.4205 93.9206C83.6974 95.491 82.2744 96.696 80.8126 97.6989C79.4907 98.6007 78.0443 99.0672 76.4192 98.7251C73.7832 98.1887 73.2855 97.0225 74.4441 94.5736C75.9138 91.4483 77.3678 88.3153 78.5809 85.0889C79.3274 83.0754 80.5559 82.1891 82.6165 82.1036C85.6958 81.9559 88.7983 81.8315 91.8387 81.295C94.0781 80.8908 96.0921 81.2795 98.036 82.5934C99.5368 83.604 101.279 84.2726 102.974 84.9645C107.002 86.6438 110.882 86.1307 114.669 84.0394C115.703 83.4719 117.584 81.9722 117.584 81.9722C117.584 81.9722 116.9 80.471 116.014 79.0327C115.034 77.4079 115.407 76.4672 116.97 75.4487C121.255 72.6578 126.643 67.8454 130.936 61.968C132.872 59.3247 134.583 56.4638 135.866 53.4629C139.271 54.87 142.662 56.2383 146.036 57.5911C146.036 57.5911 147.642 58.2946 148.893 58.8701C153.352 60.9217 152.756 66.3627 152.756 66.3627V91.3379L151.542 92.5834Z" fill="#D9AD4E"/>
<path d="M68.5836 123.665C68.5058 121.573 71.3829 117.329 73.3268 116.652C75.8073 115.789 78.49 117.896 78.1245 120.547C77.7435 123.346 76.1184 125.538 73.9256 127.117C71.7095 128.718 68.6924 126.658 68.5836 123.657V123.665Z" fill="#D9AD4E"/>
<path d="M83.8062 128.002C82.9275 129.534 79.8249 131.384 77.5855 129.736C76.7301 129.106 76.2636 128.282 76.1703 127.256C76.007 125.351 79.094 120.78 80.9058 120.189C82.3365 119.723 83.5496 120.166 84.576 121.145C85.6413 122.172 85.8901 123.462 85.3924 124.838C85.0114 125.896 84.6771 126.471 83.7984 128.002H83.8062Z" fill="#D9AD4E"/>
<path d="M84.4231 128.113C84.8974 127.125 85.1618 125.85 85.9549 124.972C86.8492 123.984 87.9222 123.362 89.3141 123.829C90.6282 124.264 91.0248 125.391 91.2503 126.604C91.4369 127.599 91.2425 128.563 90.8537 129.481C89.9751 131.549 87.7823 132.878 86.0482 132.435C82.5491 131.284 84.4231 128.113 84.4231 128.113Z" fill="#D9AD4E"/>
<path d="M64.4835 123.323C62.3374 123.432 61.0621 122.359 60.93 120.338C60.8055 118.565 62.143 116.039 63.2472 115.953C64.2502 115.876 67.9282 119.669 67.936 120.789C67.936 122.01 66.272 123.238 64.4913 123.323H64.4835Z" fill="#D9AD4E"/>
</svg>
