<svg width="1000" height="1000" viewBox="0 0 1000 1000" fill="none" xmlns="http://www.w3.org/2000/svg">
<path d="M687.813 244.797C685.657 194.529 664.763 147.28 631.459 114.024C596.295 78.8664 547.783 57.1414 494.172 57.1414C389.762 57.1414 302.277 142.534 297.823 245.788L239.945 272.429C239.349 259.663 239.6 247.051 239.946 242.775C247.549 149.44 291.871 79.3847 371.616 34.4231C411.792 11.8343 453.133 0.345526 494.172 0C535.212 0.345526 576.51 11.8343 616.685 34.4231C696.431 79.3415 740.753 149.44 748.356 242.775C748.788 247.872 749.26 261.15 748.356 272.429L687.813 244.797Z" fill="#D9AD4E"/>
<path d="M766.109 301.784C758.981 318.412 743.664 331.698 732.908 346.382L688.354 327.466L514.002 253.221C505.319 249.507 495.513 249.42 486.744 252.962L241.329 356.102C230.184 342.712 214.745 326.402 206.148 311.199C236.042 299.019 270.143 284.707 299.994 272.311C356.973 248.6 413.91 224.802 471.321 202.126C494.217 192.668 516.551 198.758 521.648 200.831C576.727 222.685 632.67 246.138 688.397 269.374C710.731 278.66 732.979 287.903 755.226 297.017L766.109 301.784Z" fill="#D9AD4E"/>
<path d="M207.633 643.211C214.701 757.704 355.718 869.51 481.174 936.884C493.261 943.375 507.734 943.374 519.822 936.885C645.277 869.536 786.294 757.985 793.362 643.492C796.037 540.625 795.536 505.092 794.491 497.308H848.862V643.492C832.622 793.833 679.948 914.194 530.801 985.859C511.641 995.066 489.354 995.066 470.195 985.856C321.048 914.16 168.373 793.553 152.133 643.211V497.027H206.504C205.459 504.812 204.958 540.344 207.633 643.211Z" fill="#D9AD4E"/>
<path d="M532.876 807.187C532.876 816.343 528.772 824.549 522.249 830.034C519.83 832.064 518.404 835.001 518.404 838.154V867.783C518.404 876.205 511.493 883.116 503.069 883.116H503.025C494.602 883.116 487.69 876.205 487.69 867.783V838.197C487.69 835.001 486.178 832.021 483.715 829.948C475.853 823.297 471.49 812.585 473.823 801.01C476.112 789.651 485.271 780.408 496.632 778.076C515.942 774.059 532.919 788.701 532.919 807.23L532.876 807.187Z" fill="#D9AD4E"/>
<path d="M643.773 655.328C634.658 660.035 626.407 655.025 621.223 648.59C610.294 634.855 599.192 620.991 588.176 607.386C585.498 604.19 583.381 600.562 579.666 602.592C574.568 605.313 578.197 610.582 578.197 610.582C578.197 610.582 594.44 631.098 599.969 638.095C604.548 643.925 609.171 649.713 613.534 655.803C621.223 666.514 623.988 674.029 615.564 680.594C604.851 688.887 595.995 685.82 587.787 675.584C577.117 662.109 567.44 648.763 556.77 635.244C554.221 631.918 549.254 628.679 546.273 631.486C544.286 633.344 545.02 637.101 547.137 639.865C556.727 652.693 566.792 665.175 576.037 678.262C583.381 688.628 584.418 695.495 576.901 701.153C566.576 708.971 560.269 705.127 552.148 695.625C540.355 681.717 517.761 652.347 517.761 652.347C517.761 652.347 514.133 648.892 511.152 652.736C509.208 655.241 510.633 658.481 510.633 658.481C510.633 658.481 528.086 682.279 536.985 693.983C542.039 700.635 544.07 707.027 537.201 713.678C533.14 717.695 531.11 721.41 525.926 719.164C520.526 716.788 520.353 712.685 520.915 707.502C523.377 684.265 514.349 673.986 490.675 672.69C486.269 672.388 484.844 669.969 483.116 666.687C475.729 652.65 468.946 649.238 453.827 652.909C447.951 654.334 444.928 653.6 442.033 647.64C431.579 626.26 413.219 623.798 397.149 641.031C395.033 643.364 393.002 645.782 391.188 648.331C388.034 652.779 384.967 653.6 380.993 649.065C363.108 628.592 341.163 613.865 316.021 604.363C309.716 601.98 306.247 600.099 303.77 600.099C297.823 612.488 298.137 611.273 293.774 623.28C290.966 631.098 287.251 630.925 279.432 628.981C258.739 623.842 226.729 606.608 194.545 583.113C180.203 572.617 165.861 560.913 152.512 548.43C151.735 492.11 151.217 409.27 151.001 364.999C150.914 346.513 161.93 329.755 178.994 322.586C192.126 317.057 205.82 311.27 210.399 309.413C218.996 324.616 229.234 339.041 240.38 352.431C275.976 395.319 320.557 427.885 349.328 442.44C358.4 447.105 361.769 451.078 357.363 461.142C354.944 466.713 347.816 474.358 353.993 479.109C362.158 485.458 371.403 492.93 383.542 489.993C392.613 487.791 397.149 483.299 406.264 481.096C409.504 480.275 411.232 479.973 412.571 481.096C416.33 484.206 413.349 486.927 411.88 490.252C405.746 503.728 402.938 510.941 397.063 525.496C393.132 535.3 397.625 551.367 405.876 556.853C418.317 565.102 440.348 564.627 453.222 558.667C464.929 553.268 474.389 544.802 481.128 534.221C487.738 523.941 495.73 526.187 506.702 526.446C538.411 527.397 555.172 536.467 583.165 548.69C620.619 565.145 632.282 601.296 651.376 631.875C656.215 639.649 653.493 650.49 643.73 655.544L643.773 655.328Z" fill="#D9AD4E"/>
<path d="M842.274 514.352C842.014 514.655 841.755 515 841.496 515.302C829.659 529.426 816.311 543.117 801.278 555.859C783.35 571.062 763.003 584.883 740.064 596.501C726.802 603.239 727.148 603.887 720.322 590.411C710.689 571.278 710.819 571.537 691.725 581.471C680.19 587.561 676.907 594.298 669.607 604.448C664.595 611.445 660.664 613.734 655.61 604.448C649.519 593.478 642.564 583.069 636.386 572.228C610.985 530.506 554.438 520.442 549.34 518.671C531.931 512.625 514.046 510.465 495.6 508.651C483.029 507.485 475.038 509.299 469.378 521.781C465.361 530.506 457.455 537.2 449.334 542.772C441.99 547.782 433.955 550.373 424.926 548.473C410.282 545.493 407.517 539.014 413.954 525.409C422.119 508.046 430.197 490.64 436.936 472.716C441.083 461.53 447.908 456.606 459.356 456.131C476.463 455.31 493.7 454.619 510.59 451.639C523.032 449.393 534.22 451.553 545.02 458.852C553.358 464.467 563.034 468.181 572.452 472.025C594.829 481.354 616.385 478.504 637.423 466.886C643.169 463.733 653.622 455.401 653.622 455.401C653.622 455.401 649.821 447.061 644.897 439.071C639.454 430.044 641.527 424.818 650.21 419.16C674.013 403.654 703.95 376.919 727.796 344.267C738.552 329.582 748.056 313.688 755.184 297.016C774.105 304.834 792.94 312.435 811.689 319.95C811.689 319.95 820.606 323.859 827.557 327.056C852.334 338.454 849.019 368.682 849.019 368.682V507.433L842.274 514.352Z" fill="#D9AD4E"/>
<path d="M381.38 687.028C380.948 675.41 396.931 651.827 407.731 648.07C421.512 643.276 436.415 654.98 434.385 669.708C432.268 685.257 423.24 697.437 411.057 706.205C398.746 715.102 381.984 703.656 381.38 686.985V687.028Z" fill="#D9AD4E"/>
<path d="M465.964 711.129C461.082 719.637 443.846 729.916 431.405 720.76C426.653 717.262 424.061 712.683 423.542 706.982C422.635 696.4 439.785 671.004 449.851 667.722C457.799 665.13 464.538 667.592 470.241 673.034C476.159 678.735 477.541 685.905 474.777 693.55C472.66 699.424 470.802 702.62 465.921 711.129H465.964Z" fill="#D9AD4E"/>
<path d="M469.378 711.734C472.013 706.249 473.482 699.166 477.889 694.285C482.856 688.8 488.818 685.345 496.551 687.936C503.851 690.355 506.054 696.617 507.307 703.355C508.344 708.884 507.264 714.239 505.104 719.336C500.223 730.825 488.04 738.21 478.407 735.748C458.967 729.356 469.378 711.734 469.378 711.734Z" fill="#D9AD4E"/>
<path d="M358.615 685.128C346.692 685.733 339.607 679.772 338.873 668.543C338.182 658.695 345.612 644.658 351.746 644.183C357.319 643.751 377.752 664.829 377.795 671.048C377.795 677.829 368.551 684.653 358.658 685.128H358.615Z" fill="#D9AD4E"/>
</svg>
