<svg width="592" height="181" viewBox="0 0 592 181" fill="none" xmlns="http://www.w3.org/2000/svg">
<path d="M98.7439 46.9039C98.3705 38.1964 94.7513 30.012 88.9823 24.2513C82.8912 18.1613 74.4877 14.3981 65.2013 14.3981C47.1152 14.3981 31.9609 29.1899 31.1894 47.0756L21.1638 51.6904C21.0605 49.4791 21.104 47.2945 21.1638 46.5538C22.4809 30.3862 30.1584 18.2511 43.972 10.4628C50.9312 6.54995 58.0925 4.55985 65.2013 4.5C72.3102 4.55985 79.4639 6.54995 86.4231 10.4628C100.237 18.2436 107.914 30.3862 109.231 46.5538C109.306 47.4366 109.388 49.7366 109.231 51.6904L98.7439 46.9039Z" fill="#D9AD4E"/>
<path d="M112.309 56.7754C111.075 59.6558 108.422 61.9571 106.558 64.5009L98.8407 61.2241L68.6393 48.3634C67.1352 47.7199 65.4366 47.705 63.9175 48.3185L21.4065 66.1844C19.4759 63.8651 16.8016 61.0399 15.3125 58.4064C20.4907 56.2966 26.3977 53.8174 31.5685 51.6702C41.4386 47.5628 51.3012 43.4405 61.2461 39.5127C65.2121 37.8742 69.0808 38.9291 69.9638 39.2883C79.5046 43.0739 89.1951 47.1364 98.8482 51.1615C102.717 52.77 106.571 54.371 110.424 55.9497L112.309 56.7754Z" fill="#D9AD4E"/>
<path d="M15.567 115.919C16.7918 135.761 41.2408 155.136 62.9798 166.805C65.055 167.919 67.5395 167.919 69.6148 166.805C91.3539 155.141 115.803 135.809 117.028 115.967C117.491 98.1487 117.404 91.9938 117.223 90.6453H126.641V115.967C123.826 142.025 97.3503 162.884 71.5003 175.295C68.2104 176.874 64.3841 176.875 61.0944 175.294C35.2443 162.878 8.76803 141.977 5.95312 115.919V90.5967H15.3714C15.1904 91.9452 15.1035 98.1001 15.567 115.919Z" fill="#D9AD4E"/>
<path d="M71.9044 144.321C71.9044 145.907 71.1935 147.329 70.0636 148.279C69.6445 148.631 69.3976 149.14 69.3976 149.686V154.818C69.3976 156.277 68.2003 157.474 66.7411 157.474H66.7336C65.2744 157.474 64.0772 156.277 64.0772 154.818V149.693C64.0772 149.14 63.8153 148.623 63.3887 148.264C62.0268 147.112 61.271 145.257 61.6751 143.252C62.0717 141.284 63.6581 139.683 65.6261 139.279C68.971 138.583 71.9119 141.119 71.9119 144.329L71.9044 144.321Z" fill="#D9AD4E"/>
<path d="M91.1087 118.017C89.5298 118.833 88.1006 117.965 87.2026 116.85C85.3094 114.471 83.3863 112.07 81.4781 109.713C81.0142 109.159 80.6475 108.531 80.0039 108.882C79.121 109.354 79.7495 110.267 79.7495 110.267C79.7495 110.267 82.5631 113.82 83.521 115.032C84.3142 116.042 85.1148 117.045 85.8706 118.1C87.2026 119.955 87.6815 121.257 86.2223 122.394C84.3665 123.831 82.8325 123.299 81.4108 121.526C79.5625 119.192 77.8863 116.88 76.038 114.538C75.5965 113.962 74.7359 113.401 74.2196 113.888C73.8754 114.209 74.0026 114.86 74.3692 115.339C76.0305 117.561 77.774 119.723 79.3754 121.99C80.6475 123.786 80.8271 124.975 79.525 125.955C77.7366 127.309 76.6441 126.644 75.2373 124.998C73.1944 122.589 69.2808 117.501 69.2808 117.501C69.2808 117.501 68.6522 116.903 68.1359 117.568C67.7992 118.002 68.0461 118.564 68.0461 118.564C68.0461 118.564 71.0692 122.686 72.6107 124.713C73.4862 125.866 73.8379 126.973 72.6482 128.125C71.9447 128.821 71.593 129.464 70.6951 129.075C69.7597 128.664 69.7298 127.953 69.8271 127.055C70.2536 123.03 68.6896 121.249 64.589 121.025C63.8257 120.973 63.5787 120.554 63.2794 119.985C61.9998 117.554 60.825 116.962 58.2059 117.598C57.1883 117.845 56.6644 117.718 56.1631 116.686C54.3522 112.982 51.1719 112.556 48.3883 115.541C48.0216 115.945 47.6699 116.364 47.3556 116.805C46.8093 117.576 46.278 117.718 45.5896 116.933C42.4916 113.386 38.6903 110.835 34.3352 109.189C33.243 108.776 32.6421 108.451 32.2129 108.451C31.1829 110.597 31.2372 110.386 30.4814 112.466C29.995 113.82 29.3515 113.79 27.9971 113.454C24.4127 112.563 18.8678 109.578 13.293 105.508C10.8086 103.69 8.32423 101.663 6.01199 99.5005C5.87729 89.7446 5.7875 75.395 5.75009 67.7264C5.73512 64.5243 7.64328 61.6215 10.5991 60.3795C12.8739 59.4219 15.246 58.4194 16.0392 58.0977C17.5283 60.7312 19.3018 63.23 21.2324 65.5493C27.3984 72.9785 35.1209 78.6195 40.1046 81.1408C41.676 81.9488 42.2597 82.6371 41.4964 84.3803C41.0773 85.3454 39.8427 86.6697 40.9127 87.4927C42.327 88.5924 43.9284 89.8868 46.0311 89.378C47.6025 88.9965 48.3883 88.2184 49.9672 87.8368C50.5284 87.6947 50.8277 87.6423 51.0597 87.8368C51.7107 88.3755 51.1944 88.8468 50.94 89.4229C49.8774 91.7571 49.391 93.0066 48.3733 95.5278C47.6923 97.2262 48.4706 100.009 49.8998 100.959C52.0549 102.388 55.8713 102.306 58.1012 101.274C60.1291 100.338 61.7679 98.8721 62.9352 97.0391C64.0801 95.2585 65.4645 95.6475 67.3651 95.6924C72.8577 95.857 75.7611 97.4282 80.6101 99.5454C87.0978 102.396 89.1183 108.658 92.4257 113.955C93.2638 115.302 92.7924 117.179 91.1012 118.055L91.1087 118.017Z" fill="#D9AD4E"/>
<path d="M125.495 93.5974C125.45 93.6497 125.405 93.7096 125.36 93.7619C123.31 96.2084 120.998 98.5801 118.393 100.787C115.288 103.421 111.764 105.815 107.79 107.827C105.493 108.994 105.553 109.107 104.37 106.772C102.702 103.458 102.724 103.503 99.4166 105.224C97.4186 106.279 96.8499 107.446 95.5853 109.204C94.7173 110.416 94.0363 110.812 93.1608 109.204C92.1057 107.304 90.9009 105.501 89.8309 103.623C85.4309 96.3955 75.6356 94.6523 74.7526 94.3455C71.737 93.2981 68.639 92.924 65.4437 92.6098C63.2662 92.4078 61.8818 92.722 60.9016 94.8842C60.2056 96.3955 58.8363 97.5551 57.4295 98.5202C56.1573 99.3881 54.7655 99.837 53.2015 99.5078C50.6648 98.9915 50.1859 97.8693 51.3009 95.5126C52.7152 92.505 54.1145 89.49 55.2818 86.3851C56.0002 84.4474 57.1825 83.5945 59.1655 83.5122C62.1288 83.3701 65.1145 83.2504 68.0403 82.7341C70.1955 82.3451 72.1336 82.7192 74.0043 83.9836C75.4485 84.9562 77.1247 85.5996 78.756 86.2654C82.6322 87.8814 86.3662 87.3877 90.0104 85.3751C91.0057 84.829 92.8165 83.3858 92.8165 83.3858C92.8165 83.3858 92.1581 81.9411 91.305 80.557C90.3622 78.9934 90.7213 78.0881 92.2254 77.108C96.3486 74.4222 101.534 69.7911 105.665 64.135C107.528 61.5913 109.174 58.8381 110.409 55.9502C113.687 57.3044 116.949 58.6211 120.197 59.9229C120.197 59.9229 121.742 60.5999 122.946 61.1538C127.238 63.1281 126.663 68.3642 126.663 68.3642V92.3988L125.495 93.5974Z" fill="#D9AD4E"/>
<path d="M45.6577 123.509C45.5829 121.496 48.3516 117.411 50.2224 116.76C52.6094 115.93 55.1911 117.957 54.8394 120.508C54.4727 123.202 52.9088 125.312 50.7986 126.83C48.6659 128.372 45.7625 126.389 45.6577 123.501V123.509Z" fill="#D9AD4E"/>
<path d="M60.3113 127.683C59.4657 129.156 56.48 130.937 54.3249 129.351C53.5018 128.745 53.0528 127.952 52.963 126.964C52.8059 125.131 55.7766 120.732 57.5202 120.164C58.897 119.715 60.0644 120.141 61.0521 121.084C62.0773 122.071 62.3168 123.313 61.8379 124.638C61.4712 125.655 61.1494 126.209 60.3038 127.683H60.3113Z" fill="#D9AD4E"/>
<path d="M60.9003 127.788C61.3568 126.838 61.6112 125.611 62.3745 124.765C63.235 123.815 64.2677 123.217 65.6071 123.666C66.8717 124.085 67.2534 125.169 67.4704 126.337C67.65 127.294 67.4629 128.222 67.0888 129.105C66.2432 131.095 64.133 132.374 62.4643 131.948C59.0969 130.84 60.9003 127.788 60.9003 127.788Z" fill="#D9AD4E"/>
<path d="M41.7166 123.18C39.6513 123.284 38.424 122.252 38.2968 120.307C38.1771 118.601 39.4642 116.169 40.5268 116.087C41.4921 116.012 45.0315 119.663 45.039 120.741C45.039 121.915 43.4377 123.097 41.7241 123.18H41.7166Z" fill="#D9AD4E"/>
<path d="M563.304 120.446C563.167 119.236 562.605 118.298 561.616 117.633C560.627 116.96 559.383 116.623 557.883 116.623C556.809 116.623 555.88 116.794 555.096 117.135C554.312 117.467 553.703 117.927 553.268 118.515C552.842 119.095 552.629 119.755 552.629 120.497C552.629 121.119 552.774 121.656 553.064 122.108C553.362 122.559 553.75 122.939 554.227 123.245C554.713 123.544 555.233 123.795 555.787 124C556.341 124.196 556.873 124.358 557.385 124.486L559.941 125.15C560.777 125.355 561.633 125.632 562.511 125.981C563.389 126.331 564.203 126.791 564.953 127.362C565.703 127.933 566.308 128.64 566.768 129.484C567.237 130.328 567.471 131.338 567.471 132.514C567.471 133.997 567.088 135.314 566.321 136.464C565.562 137.615 564.458 138.522 563.01 139.187C561.569 139.852 559.826 140.184 557.781 140.184C555.821 140.184 554.125 139.873 552.693 139.251C551.261 138.629 550.14 137.747 549.331 136.605C548.521 135.454 548.074 134.091 547.988 132.514H551.951C552.028 133.46 552.335 134.248 552.872 134.879C553.417 135.501 554.112 135.966 554.956 136.272C555.808 136.571 556.741 136.72 557.755 136.72C558.872 136.72 559.865 136.545 560.734 136.196C561.612 135.838 562.302 135.343 562.805 134.713C563.308 134.074 563.559 133.328 563.559 132.476C563.559 131.7 563.338 131.065 562.895 130.571C562.46 130.076 561.868 129.667 561.118 129.343C560.376 129.02 559.537 128.734 558.599 128.487L555.505 127.643C553.409 127.072 551.747 126.233 550.52 125.125C549.301 124.017 548.691 122.551 548.691 120.727C548.691 119.218 549.1 117.902 549.919 116.777C550.737 115.652 551.845 114.778 553.243 114.156C554.64 113.525 556.217 113.21 557.973 113.21C559.745 113.21 561.309 113.521 562.664 114.143C564.028 114.765 565.102 115.622 565.886 116.713C566.67 117.795 567.079 119.04 567.113 120.446H563.304Z" fill="white"/>
<path d="M542.542 113.568V139.75H538.912L525.603 120.548H525.36V139.75H521.41V113.568H525.066L538.387 132.796H538.63V113.568H542.542Z" fill="white"/>
<path d="M515.766 126.659C515.766 129.454 515.255 131.858 514.232 133.869C513.21 135.872 511.808 137.415 510.026 138.497C508.254 139.571 506.238 140.108 503.979 140.108C501.712 140.108 499.688 139.571 497.907 138.497C496.134 137.415 494.737 135.868 493.714 133.856C492.691 131.845 492.18 129.446 492.18 126.659C492.18 123.863 492.691 121.464 493.714 119.461C494.737 117.45 496.134 115.907 497.907 114.834C499.688 113.751 501.712 113.21 503.979 113.21C506.238 113.21 508.254 113.751 510.026 114.834C511.808 115.907 513.21 117.45 514.232 119.461C515.255 121.464 515.766 123.863 515.766 126.659ZM511.854 126.659C511.854 124.528 511.509 122.734 510.819 121.277C510.137 119.811 509.2 118.703 508.006 117.953C506.822 117.194 505.479 116.815 503.979 116.815C502.471 116.815 501.124 117.194 499.94 117.953C498.755 118.703 497.817 119.811 497.127 121.277C496.445 122.734 496.104 124.528 496.104 126.659C496.104 128.79 496.445 130.588 497.127 132.054C497.817 133.511 498.755 134.619 499.94 135.378C501.124 136.128 502.471 136.503 503.979 136.503C505.479 136.503 506.822 136.128 508.006 135.378C509.2 134.619 510.137 133.511 510.819 132.054C511.509 130.588 511.854 128.79 511.854 126.659Z" fill="white"/>
<path d="M486.548 113.568V139.75H482.598V113.568H486.548Z" fill="white"/>
<path d="M457.141 116.969V113.568H477.403V116.969H469.234V139.75H465.297V116.969H457.141Z" fill="white"/>
<path d="M448.005 113.568H451.968V130.789C451.968 132.621 451.537 134.244 450.676 135.659C449.816 137.066 448.605 138.173 447.046 138.983C445.486 139.784 443.658 140.185 441.561 140.185C439.473 140.185 437.65 139.784 436.09 138.983C434.53 138.173 433.32 137.066 432.459 135.659C431.598 134.244 431.168 132.621 431.168 130.789V113.568H435.118V130.469C435.118 131.654 435.378 132.706 435.898 133.627C436.426 134.547 437.172 135.271 438.135 135.8C439.098 136.32 440.24 136.58 441.561 136.58C442.891 136.58 444.037 136.32 445 135.8C445.972 135.271 446.713 134.547 447.225 133.627C447.745 132.706 448.005 131.654 448.005 130.469V113.568Z" fill="white"/>
<path d="M410.125 139.75V113.568H414.075V136.35H425.939V139.75H410.125Z" fill="white"/>
<path d="M404.481 126.659C404.481 129.454 403.97 131.858 402.947 133.869C401.924 135.872 400.522 137.415 398.741 138.497C396.968 139.571 394.953 140.108 392.694 140.108C390.427 140.108 388.403 139.571 386.622 138.497C384.849 137.415 383.451 135.868 382.429 133.856C381.406 131.845 380.895 129.446 380.895 126.659C380.895 123.863 381.406 121.464 382.429 119.461C383.451 117.45 384.849 115.907 386.622 114.834C388.403 113.751 390.427 113.21 392.694 113.21C394.953 113.21 396.968 113.751 398.741 114.834C400.522 115.907 401.924 117.45 402.947 119.461C403.97 121.464 404.481 123.863 404.481 126.659ZM400.569 126.659C400.569 124.528 400.224 122.734 399.534 121.277C398.852 119.811 397.914 118.703 396.721 117.953C395.537 117.194 394.194 116.815 392.694 116.815C391.186 116.815 389.839 117.194 388.654 117.953C387.47 118.703 386.532 119.811 385.842 121.277C385.16 122.734 384.819 124.528 384.819 126.659C384.819 128.79 385.16 130.588 385.842 132.054C386.532 133.511 387.47 134.619 388.654 135.378C389.839 136.128 391.186 136.503 392.694 136.503C394.194 136.503 395.537 136.128 396.721 135.378C397.914 134.619 398.852 133.511 399.534 132.054C400.224 130.588 400.569 128.79 400.569 126.659Z" fill="white"/>
<path d="M372.132 120.446C371.995 119.236 371.433 118.298 370.444 117.633C369.456 116.96 368.211 116.623 366.711 116.623C365.637 116.623 364.708 116.794 363.924 117.135C363.14 117.467 362.531 117.927 362.096 118.515C361.67 119.095 361.457 119.755 361.457 120.497C361.457 121.119 361.602 121.656 361.892 122.108C362.19 122.559 362.578 122.939 363.055 123.245C363.541 123.544 364.061 123.795 364.615 124C365.169 124.196 365.701 124.358 366.213 124.486L368.77 125.15C369.605 125.355 370.461 125.632 371.339 125.981C372.217 126.331 373.031 126.791 373.781 127.362C374.531 127.933 375.136 128.64 375.596 129.484C376.065 130.328 376.299 131.338 376.299 132.514C376.299 133.997 375.916 135.314 375.149 136.464C374.39 137.615 373.287 138.522 371.838 139.187C370.397 139.852 368.654 140.184 366.609 140.184C364.649 140.184 362.953 139.873 361.521 139.251C360.089 138.629 358.968 137.747 358.159 136.605C357.349 135.454 356.902 134.091 356.816 132.514H360.779C360.856 133.46 361.163 134.248 361.7 134.879C362.245 135.501 362.94 135.966 363.784 136.272C364.636 136.571 365.569 136.72 366.583 136.72C367.7 136.72 368.693 136.545 369.562 136.196C370.44 135.838 371.13 135.343 371.633 134.713C372.136 134.074 372.387 133.328 372.387 132.476C372.387 131.7 372.166 131.065 371.723 130.571C371.288 130.076 370.696 129.667 369.946 129.343C369.204 129.02 368.365 128.734 367.427 128.487L364.333 127.643C362.237 127.072 360.575 126.233 359.348 125.125C358.129 124.017 357.52 122.551 357.52 120.727C357.52 119.218 357.929 117.902 358.747 116.777C359.565 115.652 360.673 114.778 362.071 114.156C363.468 113.525 365.045 113.21 366.801 113.21C368.574 113.21 370.137 113.521 371.493 114.143C372.856 114.765 373.93 115.622 374.714 116.713C375.498 117.795 375.907 119.04 375.941 120.446H372.132Z" fill="white"/>
<path d="M326.562 139.75V113.568H330.513V136.35H342.376V139.75H326.562Z" fill="white"/>
<path d="M302.849 139.75H298.656L308.078 113.568H312.642L322.064 139.75H317.871L310.469 118.324H310.264L302.849 139.75ZM303.553 129.497H317.155V132.821H303.553V129.497Z" fill="white"/>
<path d="M294.165 113.568V139.75H290.215V113.568H294.165Z" fill="white"/>
<path d="M284.765 122.082H280.777C280.623 121.23 280.338 120.48 279.92 119.832C279.502 119.184 278.991 118.635 278.386 118.183C277.781 117.731 277.103 117.39 276.353 117.16C275.612 116.93 274.824 116.815 273.988 116.815C272.48 116.815 271.129 117.194 269.936 117.953C268.751 118.711 267.814 119.824 267.123 121.29C266.441 122.755 266.101 124.545 266.101 126.659C266.101 128.79 266.441 130.588 267.123 132.054C267.814 133.52 268.755 134.628 269.949 135.378C271.142 136.128 272.484 136.503 273.976 136.503C274.802 136.503 275.586 136.392 276.328 136.17C277.078 135.94 277.755 135.603 278.36 135.16C278.966 134.717 279.477 134.176 279.895 133.537C280.321 132.889 280.615 132.147 280.777 131.312L284.765 131.325C284.552 132.612 284.139 133.797 283.525 134.879C282.92 135.953 282.14 136.882 281.186 137.666C280.24 138.441 279.157 139.042 277.939 139.468C276.72 139.895 275.39 140.108 273.95 140.108C271.683 140.108 269.663 139.571 267.89 138.497C266.118 137.415 264.72 135.868 263.697 133.856C262.683 131.845 262.176 129.446 262.176 126.659C262.176 123.863 262.687 121.464 263.71 119.461C264.733 117.45 266.13 115.907 267.903 114.834C269.676 113.751 271.691 113.21 273.95 113.21C275.339 113.21 276.635 113.41 277.836 113.811C279.047 114.203 280.133 114.782 281.096 115.549C282.059 116.308 282.856 117.237 283.487 118.336C284.118 119.427 284.544 120.676 284.765 122.082Z" fill="white"/>
<path d="M256.538 113.568V139.75H252.908L239.599 120.548H239.357V139.75H235.406V113.568H239.062L252.384 132.796H252.626V113.568H256.538Z" fill="white"/>
<path d="M211.689 139.75H207.496L216.918 113.568H221.482L230.904 139.75H226.711L219.309 118.324H219.104L211.689 139.75ZM212.392 129.497H225.995V132.821H212.392V129.497Z" fill="white"/>
<path d="M202.995 113.568V139.75H199.365L186.056 120.548H185.814V139.75H181.863V113.568H185.52L198.841 132.796H199.083V113.568H202.995Z" fill="white"/>
<path d="M175.392 113.568V139.75H171.441V113.568H175.392Z" fill="white"/>
<path d="M149.629 139.75V113.568H165.865V116.969H153.579V124.946H164.701V128.334H153.579V139.75H149.629Z" fill="white"/>
<path d="M532.223 96.7497V48.0225H566.198V57.5871H544V67.58H564.462V77.1684H544V87.1851H566.198V96.7497H532.223Z" fill="white"/>
<path d="M493.027 96.7497V48.0225H526.289V57.5871H504.805V67.58H524.172V77.1684H504.805V96.7497H493.027Z" fill="white"/>
<path d="M485.637 48.0225V96.7497H473.859V48.0225H485.637Z" fill="white"/>
<path d="M435.711 96.7497V48.0225H447.488V87.1851H467.76V96.7497H435.711Z" fill="white"/>
<path d="M379.965 96.7497V48.0225H413.941V57.5871H391.742V67.58H412.204V77.1684H391.742V87.1851H413.941V96.7497H379.965Z" fill="white"/>
<path d="M335.605 96.7497V48.0225H355.734C359.382 48.0225 362.531 48.6807 365.18 49.9972C367.844 51.2979 369.899 53.1696 371.342 55.6123C372.785 58.0392 373.507 60.9181 373.507 64.249C373.507 67.6276 372.77 70.4986 371.294 72.862C369.819 75.2095 367.725 77.0019 365.013 78.2391C362.301 79.4604 359.089 80.0711 355.377 80.0711H342.648V70.792H353.188C354.965 70.792 356.448 70.562 357.637 70.102C358.843 69.6262 359.755 68.9124 360.374 67.9607C360.992 66.9931 361.301 65.7559 361.301 64.249C361.301 62.7422 360.992 61.497 360.374 60.5136C359.755 59.5143 358.843 58.7688 357.637 58.2771C356.432 57.7695 354.949 57.5157 353.188 57.5157H347.383V96.7497H335.605ZM363.038 74.4798L375.173 96.7497H362.325L350.428 74.4798H363.038Z" fill="white"/>
<path d="M316.471 48.0225H328.225V79.4525C328.225 83.0848 327.36 86.2493 325.631 88.9458C323.902 91.6264 321.491 93.7043 318.398 95.1794C315.305 96.6387 311.713 97.3683 307.62 97.3683C303.48 97.3683 299.864 96.6387 296.771 95.1794C293.678 93.7043 291.275 91.6264 289.562 88.9458C287.849 86.2493 286.992 83.0848 286.992 79.4525V48.0225H298.77V78.4294C298.77 80.1108 299.134 81.6097 299.864 82.9262C300.61 84.2427 301.648 85.2738 302.981 86.0193C304.313 86.7648 305.86 87.1375 307.62 87.1375C309.381 87.1375 310.92 86.7648 312.236 86.0193C313.569 85.2738 314.607 84.2427 315.353 82.9262C316.098 81.6097 316.471 80.1108 316.471 78.4294V48.0225Z" fill="white"/>
<path d="M280.25 65.6768H268.354C268.195 64.4554 267.87 63.353 267.378 62.3696C266.886 61.3862 266.236 60.5455 265.427 59.8476C264.618 59.1497 263.659 58.6183 262.548 58.2535C261.454 57.8728 260.24 57.6824 258.908 57.6824C256.545 57.6824 254.506 58.2614 252.793 59.4193C251.096 60.5772 249.788 62.2506 248.868 64.4395C247.963 66.6285 247.511 69.2774 247.511 72.3863C247.511 75.6221 247.971 78.3344 248.891 80.5233C249.827 82.6964 251.136 84.3381 252.817 85.4484C254.514 86.5429 256.521 87.0901 258.837 87.0901C260.137 87.0901 261.319 86.9236 262.382 86.5905C263.46 86.2574 264.404 85.7736 265.213 85.1391C266.038 84.4888 266.712 83.7036 267.235 82.7836C267.775 81.8478 268.147 80.793 268.354 79.6192L280.25 79.6906C280.044 81.8478 279.417 83.9733 278.37 86.067C277.339 88.1608 275.92 90.0721 274.112 91.801C272.303 93.5141 270.098 94.8782 267.497 95.8934C264.912 96.9085 261.946 97.4161 258.599 97.4161C254.189 97.4161 250.24 96.4485 246.75 94.5134C243.276 92.5624 240.532 89.7232 238.518 85.9957C236.503 82.2681 235.496 77.7317 235.496 72.3863C235.496 67.025 236.519 62.4806 238.565 58.7531C240.612 55.0256 243.379 52.1943 246.869 50.2591C250.359 48.324 254.268 47.3564 258.599 47.3564C261.549 47.3564 264.277 47.7689 266.783 48.5937C269.29 49.4026 271.494 50.5922 273.398 52.1626C275.301 53.717 276.848 55.6283 278.037 57.8966C279.227 60.1648 279.964 62.7582 280.25 65.6768Z" fill="white"/>
<path d="M194.668 96.7497V48.0225H228.644V57.5871H206.445V67.58H226.907V77.1684H206.445V87.1851H228.644V96.7497H194.668Z" fill="white"/>
<path d="M176.777 62.6313C176.619 60.8865 175.913 59.5303 174.66 58.5628C173.423 57.5793 171.654 57.0876 169.354 57.0876C167.831 57.0876 166.562 57.2859 165.547 57.6824C164.532 58.079 163.771 58.6262 163.263 59.3241C162.756 60.0062 162.494 60.7913 162.478 61.6796C162.446 62.4092 162.589 63.0516 162.906 63.6068C163.239 64.162 163.715 64.6537 164.334 65.0819C164.968 65.4943 165.73 65.8592 166.618 66.1764C167.506 66.4936 168.505 66.7712 169.616 67.0091L173.803 67.9608C176.214 68.4843 178.34 69.1822 180.18 70.0546C182.036 70.927 183.59 71.9659 184.843 73.1714C186.112 74.3769 187.072 75.7648 187.722 77.3351C188.372 78.9054 188.705 80.6661 188.721 82.6171C188.705 85.6943 187.928 88.3353 186.39 90.54C184.851 92.7448 182.638 94.4341 179.751 95.6079C176.88 96.7816 173.415 97.3685 169.354 97.3685C165.278 97.3685 161.725 96.7578 158.695 95.5365C155.665 94.3151 153.31 92.4593 151.629 89.969C149.947 87.4787 149.083 84.3302 149.035 80.5233H160.313C160.408 82.0937 160.828 83.4023 161.574 84.4491C162.319 85.496 163.342 86.2891 164.643 86.8284C165.96 87.3677 167.482 87.6373 169.211 87.6373C170.797 87.6373 172.146 87.4232 173.256 86.9949C174.382 86.5667 175.247 85.9719 175.849 85.2105C176.452 84.4491 176.761 83.5767 176.777 82.5933C176.761 81.6733 176.476 80.8882 175.921 80.2378C175.366 79.5716 174.509 79.0006 173.351 78.5248C172.209 78.0331 170.75 77.581 168.973 77.1686L163.882 75.979C159.663 75.0114 156.339 73.449 153.913 71.2918C151.486 69.1188 150.28 66.1843 150.296 62.4886C150.28 59.4748 151.089 56.8338 152.723 54.5656C154.357 52.2974 156.617 50.5288 159.504 49.2599C162.391 47.9909 165.682 47.3564 169.378 47.3564C173.153 47.3564 176.428 47.9988 179.204 49.2836C181.996 50.5526 184.161 52.337 185.7 54.637C187.238 56.9369 188.023 59.6017 188.055 62.6313H176.777Z" fill="white"/>
</svg>
