<svg width="593" height="180" viewBox="0 0 593 180" fill="none" xmlns="http://www.w3.org/2000/svg">
<path d="M98.9939 46.1539C98.6205 37.4464 95.0013 29.262 89.2323 23.5013C83.1412 17.4113 74.7377 13.6481 65.4513 13.6481C47.3652 13.6481 32.2109 28.4399 31.4394 46.3256L21.4138 50.9404C21.3105 48.7291 21.354 46.5445 21.4138 45.8038C22.7309 29.6362 30.4084 17.5011 44.222 9.7128C51.1812 5.79995 58.3425 3.80985 65.4513 3.75C72.5602 3.80985 79.7139 5.79995 86.6731 9.7128C100.487 17.4936 108.164 29.6362 109.481 45.8038C109.556 46.6866 109.638 48.9866 109.481 50.9404L98.9939 46.1539Z" fill="#D9AD4E"/>
<path d="M112.559 56.025C111.325 58.9054 108.672 61.2066 106.808 63.7504L99.0907 60.4737L68.8893 47.6129C67.3852 46.9695 65.6866 46.9545 64.1675 47.568L21.6565 65.4339C19.7259 63.1146 17.0516 60.2894 15.5625 57.6559C20.7407 55.5461 26.6477 53.0669 31.8185 50.9197C41.6886 46.8124 51.5512 42.69 61.4961 38.7622C65.4621 37.1238 69.3308 38.1786 70.2138 38.5378C79.7546 42.3234 89.4451 46.3859 99.0982 50.411C102.967 52.0195 106.821 53.6206 110.674 55.1992L112.559 56.025Z" fill="#D9AD4E"/>
<path d="M15.817 115.168C17.0418 135.01 41.4908 154.386 63.2298 166.055C65.305 167.168 67.7895 167.168 69.8648 166.055C91.6039 154.39 116.053 135.059 117.278 115.217C117.741 97.3982 117.654 91.2433 117.473 89.8948H126.891V115.217C124.076 141.275 97.6003 162.133 71.7503 174.544C68.4604 176.124 64.6341 176.124 61.3444 174.544C35.4943 162.127 9.01803 141.226 6.20312 115.168V89.8462H15.6214C15.4404 91.1947 15.3535 97.3496 15.817 115.168Z" fill="#D9AD4E"/>
<path d="M72.1544 143.572C72.1544 145.158 71.4435 146.579 70.3136 147.53C69.8945 147.881 69.6476 148.39 69.6476 148.936V154.068C69.6476 155.527 68.4503 156.724 66.9911 156.724H66.9836C65.5244 156.724 64.3272 155.527 64.3272 154.068V148.944C64.3272 148.39 64.0653 147.874 63.6387 147.515C62.2768 146.362 61.521 144.507 61.9251 142.502C62.3217 140.534 63.9081 138.933 65.8761 138.529C69.221 137.834 72.1619 140.37 72.1619 143.579L72.1544 143.572Z" fill="#D9AD4E"/>
<path d="M91.3587 117.267C89.7798 118.082 88.3506 117.215 87.4526 116.1C85.5594 113.721 83.6363 111.319 81.7281 108.962C81.2642 108.409 80.8975 107.78 80.2539 108.132C79.371 108.603 79.9995 109.516 79.9995 109.516C79.9995 109.516 82.8131 113.07 83.771 114.282C84.5642 115.292 85.3648 116.294 86.1206 117.349C87.4526 119.205 87.9315 120.506 86.4723 121.644C84.6165 123.08 83.0825 122.549 81.6608 120.776C79.8125 118.441 78.1363 116.13 76.288 113.788C75.8465 113.212 74.9859 112.651 74.4696 113.137C74.1254 113.459 74.2526 114.11 74.6192 114.589C76.2805 116.811 78.024 118.973 79.6254 121.24C80.8975 123.035 81.0771 124.225 79.775 125.205C77.9866 126.559 76.8941 125.893 75.4873 124.247C73.4444 121.838 69.5308 116.751 69.5308 116.751C69.5308 116.751 68.9022 116.152 68.3859 116.818C68.0492 117.252 68.2961 117.813 68.2961 117.813C68.2961 117.813 71.3192 121.935 72.8607 123.963C73.7362 125.115 74.0879 126.222 72.8982 127.374C72.1947 128.07 71.843 128.714 70.9451 128.325C70.0097 127.913 69.9798 127.202 70.0771 126.305C70.5036 122.28 68.9396 120.499 64.839 120.274C64.0757 120.222 63.8287 119.803 63.5294 119.235C62.2498 116.803 61.075 116.212 58.4559 116.848C57.4383 117.095 56.9144 116.968 56.4131 115.935C54.6022 112.232 51.4219 111.805 48.6383 114.79C48.2716 115.195 47.9199 115.613 47.6056 116.055C47.0593 116.825 46.528 116.968 45.8396 116.182C42.7416 112.636 38.9403 110.085 34.5852 108.439C33.493 108.026 32.8921 107.7 32.4629 107.7C31.4329 109.846 31.4872 109.636 30.7314 111.716C30.245 113.07 29.6015 113.04 28.2471 112.703C24.6627 111.813 19.1178 108.828 13.543 104.758C11.0586 102.94 8.57423 100.912 6.26199 98.7501C6.12729 88.9941 6.0375 74.6445 6.00009 66.9759C5.98512 63.7738 7.89328 60.871 10.8491 59.629C13.1239 58.6714 15.496 57.6689 16.2892 57.3472C17.7783 59.9807 19.5518 62.4795 21.4824 64.7988C27.6484 72.228 35.3709 77.8691 40.3546 80.3903C41.926 81.1983 42.5097 81.8866 41.7464 83.6298C41.3273 84.595 40.0927 85.9192 41.1627 86.7422C42.577 87.842 44.1784 89.1363 46.2811 88.6275C47.8525 88.246 48.6383 87.4679 50.2172 87.0863C50.7784 86.9442 51.0777 86.8918 51.3097 87.0863C51.9607 87.625 51.4444 88.0963 51.19 88.6724C50.1274 91.0067 49.641 92.2561 48.6233 94.7774C47.9423 96.4757 48.7206 99.2588 50.1498 100.209C52.3049 101.638 56.1213 101.556 58.3512 100.523C60.3791 99.588 62.0179 98.1216 63.1852 96.2886C64.3301 94.508 65.7145 94.8971 67.6151 94.942C73.1077 95.1065 76.0111 96.6777 80.8601 98.7949C87.3478 101.645 89.3683 107.907 92.6757 113.204C93.5138 114.551 93.0424 116.429 91.3512 117.304L91.3587 117.267Z" fill="#D9AD4E"/>
<path d="M125.745 92.8474C125.7 92.8997 125.655 92.9596 125.61 93.0119C123.56 95.4584 121.248 97.8301 118.643 100.037C115.538 102.671 112.014 105.065 108.04 107.077C105.743 108.244 105.803 108.357 104.62 106.022C102.952 102.708 102.974 102.753 99.6666 104.474C97.6686 105.529 97.0999 106.696 95.8353 108.454C94.9673 109.666 94.2863 110.062 93.4108 108.454C92.3557 106.554 91.1509 104.751 90.0809 102.873C85.6809 95.6455 75.8856 93.9023 75.0026 93.5955C71.987 92.5481 68.889 92.174 65.6937 91.8598C63.5162 91.6578 62.1318 91.972 61.1516 94.1342C60.4556 95.6455 59.0863 96.8051 57.6795 97.7702C56.4073 98.6381 55.0155 99.087 53.4515 98.7578C50.9148 98.2415 50.4359 97.1193 51.5509 94.7626C52.9652 91.755 54.3645 88.74 55.5318 85.6351C56.2502 83.6974 57.4325 82.8445 59.4155 82.7622C62.3788 82.6201 65.3645 82.5004 68.2903 81.9841C70.4455 81.5951 72.3836 81.9692 74.2543 83.2336C75.6985 84.2062 77.3747 84.8496 79.006 85.5154C82.8822 87.1314 86.6162 86.6377 90.2604 84.6251C91.2557 84.079 93.0665 82.6358 93.0665 82.6358C93.0665 82.6358 92.4081 81.1911 91.555 79.807C90.6122 78.2434 90.9713 77.3381 92.4754 76.358C96.5986 73.6722 101.784 69.0411 105.915 63.385C107.778 60.8413 109.424 58.0881 110.659 55.2002C113.937 56.5544 117.199 57.8711 120.447 59.1729C120.447 59.1729 121.992 59.8499 123.196 60.4038C127.488 62.3781 126.913 67.6142 126.913 67.6142V91.6488L125.745 92.8474Z" fill="#D9AD4E"/>
<path d="M45.9077 122.759C45.8329 120.746 48.6016 116.661 50.4724 116.01C52.8594 115.18 55.4411 117.207 55.0894 119.758C54.7227 122.452 53.1588 124.562 51.0486 126.08C48.9159 127.622 46.0125 125.639 45.9077 122.751V122.759Z" fill="#D9AD4E"/>
<path d="M60.5613 126.933C59.7157 128.407 56.73 130.188 54.5749 128.601C53.7518 127.995 53.3028 127.202 53.213 126.215C53.0559 124.382 56.0266 119.983 57.7702 119.414C59.147 118.965 60.3144 119.392 61.3021 120.334C62.3273 121.322 62.5668 122.564 62.0879 123.888C61.7212 124.906 61.3994 125.459 60.5538 126.933H60.5613Z" fill="#D9AD4E"/>
<path d="M61.1503 127.038C61.6068 126.088 61.8612 124.861 62.6245 124.015C63.485 123.065 64.5177 122.467 65.8571 122.916C67.1217 123.335 67.5034 124.419 67.7204 125.587C67.9 126.544 67.7129 127.472 67.3388 128.355C66.4932 130.345 64.383 131.624 62.7143 131.198C59.3469 130.09 61.1503 127.038 61.1503 127.038Z" fill="#D9AD4E"/>
<path d="M41.9666 122.43C39.9013 122.535 38.674 121.502 38.5468 119.557C38.4271 117.851 39.7142 115.42 40.7768 115.338C41.7421 115.263 45.2815 118.914 45.289 119.991C45.289 121.166 43.6877 122.348 41.9741 122.43H41.9666Z" fill="#D9AD4E"/>
<path d="M560.943 115.204L554.711 115.587C554.604 115.055 554.375 114.575 554.023 114.149C553.672 113.712 553.208 113.366 552.633 113.11C552.069 112.844 551.392 112.711 550.604 112.711C549.549 112.711 548.659 112.934 547.935 113.382C547.211 113.819 546.848 114.405 546.848 115.14C546.848 115.726 547.083 116.221 547.551 116.626C548.02 117.031 548.825 117.356 549.964 117.601L554.407 118.496C556.793 118.986 558.572 119.774 559.744 120.861C560.916 121.947 561.502 123.375 561.502 125.143C561.502 126.752 561.028 128.164 560.08 129.378C559.142 130.593 557.853 131.541 556.213 132.222C554.583 132.894 552.702 133.229 550.572 133.229C547.322 133.229 544.734 132.553 542.805 131.2C540.888 129.836 539.764 127.982 539.434 125.639L546.129 125.287C546.332 126.278 546.822 127.034 547.599 127.556C548.377 128.068 549.373 128.323 550.588 128.323C551.781 128.323 552.74 128.094 553.464 127.636C554.199 127.167 554.572 126.566 554.583 125.83C554.572 125.213 554.311 124.707 553.8 124.312C553.288 123.907 552.5 123.599 551.435 123.385L547.184 122.539C544.787 122.059 543.002 121.228 541.831 120.046C540.669 118.863 540.089 117.356 540.089 115.523C540.089 113.947 540.515 112.588 541.367 111.448C542.23 110.308 543.439 109.43 544.995 108.812C546.561 108.194 548.393 107.885 550.492 107.885C553.592 107.885 556.032 108.54 557.811 109.85C559.601 111.161 560.645 112.945 560.943 115.204Z" fill="#0A1739"/>
<path d="M519.335 118.559V132.75H512.527V108.204H519.015V112.535H519.303C519.846 111.107 520.757 109.978 522.036 109.147C523.314 108.306 524.864 107.885 526.686 107.885C528.39 107.885 529.876 108.258 531.144 109.003C532.412 109.749 533.397 110.814 534.1 112.199C534.804 113.574 535.155 115.214 535.155 117.121V132.75H528.348V118.336C528.358 116.834 527.975 115.662 527.197 114.82C526.419 113.968 525.349 113.542 523.985 113.542C523.069 113.542 522.259 113.739 521.556 114.133C520.864 114.527 520.32 115.102 519.926 115.859C519.543 116.605 519.346 117.505 519.335 118.559Z" fill="#0A1739"/>
<path d="M496.022 133.229C493.54 133.229 491.393 132.702 489.582 131.647C487.782 130.582 486.392 129.101 485.412 127.205C484.431 125.298 483.941 123.087 483.941 120.573C483.941 118.037 484.431 115.822 485.412 113.925C486.392 112.018 487.782 110.537 489.582 109.483C491.393 108.417 493.54 107.885 496.022 107.885C498.505 107.885 500.646 108.417 502.446 109.483C504.257 110.537 505.653 112.018 506.633 113.925C507.613 115.822 508.103 118.037 508.103 120.573C508.103 123.087 507.613 125.298 506.633 127.205C505.653 129.101 504.257 130.582 502.446 131.647C500.646 132.702 498.505 133.229 496.022 133.229ZM496.054 127.956C497.184 127.956 498.126 127.636 498.883 126.997C499.639 126.347 500.209 125.463 500.593 124.344C500.987 123.226 501.184 121.953 501.184 120.525C501.184 119.097 500.987 117.824 500.593 116.706C500.209 115.587 499.639 114.703 498.883 114.053C498.126 113.403 497.184 113.078 496.054 113.078C494.914 113.078 493.956 113.403 493.178 114.053C492.411 114.703 491.83 115.587 491.436 116.706C491.053 117.824 490.861 119.097 490.861 120.525C490.861 121.953 491.053 123.226 491.436 124.344C491.83 125.463 492.411 126.347 493.178 126.997C493.956 127.636 494.914 127.956 496.054 127.956Z" fill="#0A1739"/>
<path d="M472.67 132.75V108.204H479.477V132.75H472.67ZM476.089 105.04C475.077 105.04 474.209 104.705 473.485 104.034C472.771 103.352 472.414 102.537 472.414 101.589C472.414 100.651 472.771 99.8467 473.485 99.1756C474.209 98.4937 475.077 98.1528 476.089 98.1528C477.102 98.1528 477.964 98.4937 478.678 99.1756C479.403 99.8467 479.765 100.651 479.765 101.589C479.765 102.537 479.403 103.352 478.678 104.034C477.964 104.705 477.102 105.04 476.089 105.04Z" fill="#0A1739"/>
<path d="M468.235 108.204V113.318H453.453V108.204H468.235ZM456.809 102.324H463.616V125.207C463.616 125.836 463.712 126.326 463.904 126.677C464.096 127.018 464.362 127.258 464.703 127.397C465.055 127.535 465.46 127.604 465.918 127.604C466.237 127.604 466.557 127.578 466.876 127.524C467.196 127.46 467.441 127.413 467.612 127.381L468.682 132.446C468.341 132.553 467.862 132.675 467.244 132.814C466.626 132.963 465.875 133.053 464.991 133.085C463.35 133.149 461.912 132.931 460.676 132.43C459.451 131.93 458.498 131.152 457.816 130.097C457.134 129.042 456.798 127.711 456.809 126.102V102.324Z" fill="#0A1739"/>
<path d="M442.928 122.299V108.204H449.735V132.75H443.2V128.291H442.944C442.39 129.729 441.468 130.885 440.179 131.759C438.901 132.632 437.34 133.069 435.497 133.069C433.857 133.069 432.413 132.696 431.167 131.951C429.92 131.205 428.945 130.145 428.242 128.771C427.55 127.396 427.198 125.75 427.188 123.833V108.204H433.995V122.618C434.006 124.067 434.395 125.212 435.162 126.054C435.929 126.896 436.957 127.316 438.246 127.316C439.066 127.316 439.833 127.13 440.547 126.757C441.261 126.373 441.836 125.809 442.273 125.063C442.72 124.317 442.939 123.396 442.928 122.299Z" fill="#0A1739"/>
<path d="M421.733 100.022V132.75H414.926V100.022H421.733Z" fill="#0A1739"/>
<path d="M398.417 133.229C395.935 133.229 393.788 132.702 391.977 131.647C390.177 130.582 388.786 129.101 387.806 127.205C386.826 125.298 386.336 123.087 386.336 120.573C386.336 118.037 386.826 115.822 387.806 113.925C388.786 112.018 390.177 110.537 391.977 109.483C393.788 108.417 395.935 107.885 398.417 107.885C400.899 107.885 403.041 108.417 404.841 109.483C406.652 110.537 408.048 112.018 409.028 113.925C410.008 115.822 410.498 118.037 410.498 120.573C410.498 123.087 410.008 125.298 409.028 127.205C408.048 129.101 406.652 130.582 404.841 131.647C403.041 132.702 400.899 133.229 398.417 133.229ZM398.449 127.956C399.578 127.956 400.521 127.636 401.277 126.997C402.034 126.347 402.604 125.463 402.987 124.344C403.381 123.226 403.578 121.953 403.578 120.525C403.578 119.097 403.381 117.824 402.987 116.706C402.604 115.587 402.034 114.703 401.277 114.053C400.521 113.403 399.578 113.078 398.449 113.078C397.309 113.078 396.35 113.403 395.572 114.053C394.805 114.703 394.225 115.587 393.831 116.706C393.447 117.824 393.255 119.097 393.255 120.525C393.255 121.953 393.447 123.226 393.831 124.344C394.225 125.463 394.805 126.347 395.572 126.997C396.35 127.636 397.309 127.956 398.449 127.956Z" fill="#0A1739"/>
<path d="M375.723 109.435C375.595 108.146 375.046 107.144 374.077 106.431C373.107 105.717 371.792 105.36 370.13 105.36C369 105.36 368.047 105.52 367.269 105.839C366.491 106.148 365.895 106.58 365.479 107.134C365.075 107.688 364.872 108.316 364.872 109.019C364.851 109.605 364.973 110.117 365.24 110.554C365.517 110.99 365.895 111.369 366.374 111.688C366.854 111.997 367.408 112.269 368.036 112.503C368.665 112.727 369.336 112.919 370.05 113.078L372.99 113.782C374.418 114.101 375.728 114.527 376.921 115.06C378.114 115.593 379.148 116.248 380.021 117.025C380.895 117.803 381.571 118.719 382.051 119.774C382.541 120.829 382.791 122.038 382.802 123.402C382.791 125.404 382.28 127.141 381.268 128.611C380.266 130.071 378.817 131.205 376.921 132.015C375.036 132.814 372.761 133.213 370.098 133.213C367.456 133.213 365.154 132.809 363.194 131.999C361.245 131.189 359.721 129.991 358.624 128.403C357.537 126.805 356.967 124.829 356.914 122.475H363.61C363.684 123.572 363.999 124.488 364.553 125.223C365.117 125.948 365.868 126.496 366.806 126.869C367.754 127.231 368.825 127.413 370.018 127.413C371.19 127.413 372.207 127.242 373.07 126.901C373.944 126.56 374.62 126.086 375.099 125.479C375.579 124.872 375.819 124.174 375.819 123.386C375.819 122.65 375.6 122.033 375.163 121.532C374.737 121.031 374.109 120.605 373.278 120.253C372.457 119.902 371.451 119.582 370.257 119.295L366.694 118.4C363.935 117.729 361.756 116.679 360.158 115.252C358.56 113.824 357.766 111.901 357.777 109.483C357.766 107.501 358.294 105.77 359.359 104.289C360.435 102.809 361.911 101.653 363.786 100.822C365.661 99.9907 367.791 99.5752 370.178 99.5752C372.607 99.5752 374.727 99.9907 376.538 100.822C378.359 101.653 379.776 102.809 380.788 104.289C381.8 105.77 382.322 107.485 382.354 109.435H375.723Z" fill="#0A1739"/>
<path d="M341.972 100.022V132.75H335.164V100.022H341.972Z" fill="#0A1739"/>
<path d="M316.06 133.213C314.494 133.213 313.098 132.942 311.873 132.398C310.648 131.844 309.679 131.029 308.965 129.953C308.262 128.867 307.91 127.514 307.91 125.894C307.91 124.531 308.161 123.385 308.661 122.459C309.162 121.532 309.844 120.786 310.707 120.221C311.57 119.657 312.55 119.231 313.647 118.943C314.755 118.655 315.916 118.453 317.131 118.336C318.558 118.187 319.709 118.048 320.582 117.92C321.456 117.782 322.09 117.579 322.484 117.313C322.878 117.047 323.075 116.653 323.075 116.131V116.035C323.075 115.023 322.756 114.24 322.116 113.686C321.488 113.132 320.593 112.855 319.432 112.855C318.207 112.855 317.232 113.126 316.507 113.67C315.783 114.202 315.304 114.873 315.069 115.683L308.773 115.172C309.093 113.68 309.721 112.391 310.659 111.305C311.596 110.207 312.805 109.366 314.286 108.78C315.778 108.183 317.504 107.885 319.464 107.885C320.827 107.885 322.132 108.045 323.379 108.364C324.636 108.684 325.749 109.179 326.719 109.85C327.699 110.521 328.471 111.384 329.036 112.439C329.6 113.483 329.883 114.735 329.883 116.194V132.75H323.427V129.346H323.235C322.841 130.113 322.314 130.79 321.653 131.376C320.993 131.951 320.199 132.404 319.272 132.734C318.345 133.053 317.275 133.213 316.06 133.213ZM318.01 128.515C319.011 128.515 319.895 128.318 320.662 127.924C321.429 127.519 322.031 126.976 322.468 126.294C322.905 125.612 323.123 124.84 323.123 123.977V121.372C322.91 121.51 322.617 121.638 322.244 121.756C321.882 121.862 321.472 121.963 321.014 122.059C320.556 122.144 320.098 122.224 319.64 122.299C319.181 122.363 318.766 122.421 318.393 122.475C317.594 122.592 316.896 122.778 316.3 123.034C315.703 123.29 315.24 123.636 314.909 124.073C314.579 124.499 314.414 125.031 314.414 125.671C314.414 126.597 314.75 127.306 315.421 127.796C316.103 128.275 316.966 128.515 318.01 128.515Z" fill="#0A1739"/>
<path d="M296.803 132.75V108.204H303.61V132.75H296.803ZM300.222 105.04C299.21 105.04 298.342 104.705 297.618 104.034C296.904 103.352 296.547 102.537 296.547 101.589C296.547 100.651 296.904 99.8467 297.618 99.1756C298.342 98.4937 299.21 98.1528 300.222 98.1528C301.234 98.1528 302.097 98.4937 302.811 99.1756C303.536 99.8467 303.898 100.651 303.898 101.589C303.898 102.537 303.536 103.352 302.811 104.034C302.097 104.705 301.234 105.04 300.222 105.04Z" fill="#0A1739"/>
<path d="M281.479 133.229C278.965 133.229 276.803 132.697 274.991 131.631C273.191 130.555 271.806 129.064 270.837 127.157C269.878 125.25 269.398 123.055 269.398 120.573C269.398 118.059 269.883 115.854 270.853 113.957C271.833 112.05 273.223 110.564 275.023 109.499C276.824 108.423 278.965 107.885 281.447 107.885C283.589 107.885 285.464 108.274 287.072 109.051C288.681 109.829 289.954 110.921 290.892 112.327C291.829 113.733 292.346 115.385 292.442 117.281H286.018C285.837 116.056 285.357 115.07 284.58 114.325C283.813 113.568 282.806 113.19 281.559 113.19C280.505 113.19 279.583 113.478 278.795 114.053C278.017 114.618 277.41 115.443 276.973 116.53C276.536 117.617 276.318 118.932 276.318 120.477C276.318 122.043 276.531 123.375 276.957 124.472C277.394 125.569 278.006 126.406 278.795 126.981C279.583 127.556 280.505 127.844 281.559 127.844C282.337 127.844 283.035 127.684 283.653 127.365C284.281 127.045 284.798 126.582 285.203 125.974C285.618 125.356 285.89 124.616 286.018 123.753H292.442C292.335 125.628 291.824 127.279 290.908 128.707C290.002 130.124 288.75 131.232 287.152 132.031C285.554 132.83 283.663 133.229 281.479 133.229Z" fill="#0A1739"/>
<path d="M249.206 118.559V132.75H242.398V108.204H248.886V112.535H249.174C249.717 111.107 250.628 109.978 251.907 109.147C253.185 108.306 254.735 107.885 256.557 107.885C258.261 107.885 259.748 108.258 261.015 109.003C262.283 109.749 263.268 110.814 263.972 112.199C264.675 113.574 265.026 115.214 265.026 117.121V132.75H258.219V118.336C258.229 116.834 257.846 115.662 257.068 114.82C256.29 113.968 255.22 113.542 253.856 113.542C252.94 113.542 252.13 113.739 251.427 114.133C250.735 114.527 250.191 115.102 249.797 115.859C249.414 116.605 249.217 117.505 249.206 118.559Z" fill="#0A1739"/>
<path d="M223.29 133.213C221.724 133.213 220.329 132.942 219.104 132.398C217.879 131.844 216.909 131.029 216.195 129.953C215.492 128.867 215.141 127.514 215.141 125.894C215.141 124.531 215.391 123.385 215.892 122.459C216.392 121.532 217.074 120.786 217.937 120.221C218.8 119.657 219.78 119.231 220.877 118.943C221.985 118.655 223.147 118.453 224.361 118.336C225.789 118.187 226.939 118.048 227.813 117.92C228.686 117.782 229.32 117.579 229.714 117.313C230.109 117.047 230.306 116.653 230.306 116.131V116.035C230.306 115.023 229.986 114.24 229.347 113.686C228.718 113.132 227.824 112.855 226.662 112.855C225.437 112.855 224.462 113.126 223.738 113.67C223.013 114.202 222.534 114.873 222.3 115.683L216.004 115.172C216.323 113.68 216.952 112.391 217.889 111.305C218.827 110.207 220.036 109.366 221.517 108.78C223.008 108.183 224.734 107.885 226.694 107.885C228.058 107.885 229.363 108.045 230.609 108.364C231.866 108.684 232.98 109.179 233.949 109.85C234.929 110.521 235.702 111.384 236.266 112.439C236.831 113.483 237.113 114.735 237.113 116.194V132.75H230.657V129.346H230.466C230.071 130.113 229.544 130.79 228.884 131.376C228.223 131.951 227.429 132.404 226.502 132.734C225.576 133.053 224.505 133.213 223.29 133.213ZM225.24 128.515C226.241 128.515 227.126 128.318 227.893 127.924C228.66 127.519 229.262 126.976 229.699 126.294C230.135 125.612 230.354 124.84 230.354 123.977V121.372C230.141 121.51 229.848 121.638 229.475 121.756C229.113 121.862 228.702 121.963 228.244 122.059C227.786 122.144 227.328 122.224 226.87 122.299C226.412 122.363 225.996 122.421 225.624 122.475C224.825 122.592 224.127 122.778 223.53 123.034C222.934 123.29 222.47 123.636 222.14 124.073C221.81 124.499 221.645 125.031 221.645 125.671C221.645 126.597 221.98 127.306 222.651 127.796C223.333 128.275 224.196 128.515 225.24 128.515Z" fill="#0A1739"/>
<path d="M195.108 118.559V132.75H188.301V108.204H194.789V112.535H195.076C195.62 111.107 196.531 109.978 197.809 109.147C199.087 108.306 200.637 107.885 202.459 107.885C204.164 107.885 205.65 108.258 206.918 109.003C208.185 109.749 209.171 110.814 209.874 112.199C210.577 113.574 210.929 115.214 210.929 117.121V132.75H204.121V118.336C204.132 116.834 203.748 115.662 202.971 114.82C202.193 113.968 201.122 113.542 199.759 113.542C198.842 113.542 198.033 113.739 197.33 114.133C196.637 114.527 196.094 115.102 195.7 115.859C195.316 116.605 195.119 117.505 195.108 118.559Z" fill="#0A1739"/>
<path d="M176.041 132.75V108.204H182.848V132.75H176.041ZM179.461 105.04C178.449 105.04 177.58 104.705 176.856 104.034C176.142 103.352 175.785 102.537 175.785 101.589C175.785 100.651 176.142 99.8467 176.856 99.1756C177.58 98.4937 178.449 98.1528 179.461 98.1528C180.473 98.1528 181.336 98.4937 182.049 99.1756C182.774 99.8467 183.136 100.651 183.136 101.589C183.136 102.537 182.774 103.352 182.049 104.034C181.336 104.705 180.473 105.04 179.461 105.04Z" fill="#0A1739"/>
<path d="M149.844 132.75V100.022H171.513V105.727H156.763V113.526H170.075V119.231H156.763V132.75H149.844Z" fill="#0A1739"/>
<path d="M380.54 79.2292C378.015 79.2292 375.842 78.7179 374.02 77.6951C372.209 76.6618 370.814 75.2022 369.833 73.3166C368.853 71.4203 368.363 69.1777 368.363 66.589C368.363 64.0641 368.853 61.8482 369.833 59.9412C370.814 58.0343 372.193 56.5481 373.972 55.4828C375.762 54.4174 377.861 53.8848 380.268 53.8848C381.888 53.8848 383.395 54.1458 384.791 54.6678C386.197 55.1792 387.422 55.9515 388.466 56.9849C389.521 58.0183 390.341 59.318 390.927 60.8841C391.513 62.4395 391.806 64.2612 391.806 66.3493V68.2189H371.08V64.0002H385.398C385.398 63.0201 385.185 62.1518 384.759 61.3954C384.333 60.639 383.741 60.0478 382.985 59.6216C382.239 59.1848 381.371 58.9664 380.38 58.9664C379.347 58.9664 378.431 59.2061 377.632 59.6855C376.843 60.1543 376.226 60.7882 375.778 61.5872C375.331 62.3755 375.102 63.2544 375.091 64.2239V68.2349C375.091 69.4494 375.315 70.4988 375.762 71.383C376.22 72.2672 376.865 72.949 377.696 73.4284C378.527 73.9078 379.512 74.1476 380.652 74.1476C381.408 74.1476 382.101 74.041 382.729 73.8279C383.358 73.6149 383.896 73.2953 384.343 72.8691C384.791 72.443 385.132 71.921 385.366 71.3031L391.662 71.7186C391.343 73.2314 390.688 74.5524 389.697 75.6816C388.717 76.8003 387.449 77.6738 385.893 78.3024C384.349 78.9203 382.564 79.2292 380.54 79.2292Z" fill="#0A1739"/>
<path d="M366.075 54.2042V59.3178H350.926V54.2042H366.075ZM354.393 78.7496V52.4304C354.393 50.6513 354.74 49.1758 355.432 48.0039C356.135 46.832 357.094 45.9531 358.309 45.3672C359.523 44.7812 360.903 44.4883 362.447 44.4883C363.491 44.4883 364.445 44.5682 365.308 44.728C366.181 44.8878 366.831 45.0316 367.257 45.1594L366.043 50.2731C365.777 50.1879 365.446 50.108 365.052 50.0334C364.669 49.9588 364.275 49.9215 363.87 49.9215C362.868 49.9215 362.17 50.1559 361.776 50.6246C361.382 51.0827 361.185 51.7273 361.185 52.5582V78.7496H354.393Z" fill="#0A1739"/>
<path d="M340.615 78.7498V54.2043H347.423V78.7498H340.615ZM344.035 51.0403C343.023 51.0403 342.154 50.7047 341.43 50.0335C340.716 49.3517 340.359 48.5367 340.359 47.5886C340.359 46.6511 340.716 45.8467 341.43 45.1756C342.154 44.4937 343.023 44.1528 344.035 44.1528C345.047 44.1528 345.91 44.4937 346.624 45.1756C347.348 45.8467 347.71 46.6511 347.71 47.5886C347.71 48.5367 347.348 49.3517 346.624 50.0335C345.91 50.7047 345.047 51.0403 344.035 51.0403Z" fill="#0A1739"/>
<path d="M315.211 78.7497V46.0225H322.13V73.0448H336.161V78.7497H315.211Z" fill="#0A1739"/>
<path d="M288.958 79.2292C286.433 79.2292 284.26 78.7179 282.438 77.6951C280.627 76.6618 279.232 75.2022 278.251 73.3166C277.271 71.4203 276.781 69.1777 276.781 66.589C276.781 64.0641 277.271 61.8482 278.251 59.9412C279.232 58.0343 280.611 56.5481 282.39 55.4828C284.18 54.4174 286.279 53.8848 288.686 53.8848C290.306 53.8848 291.813 54.1458 293.209 54.6678C294.615 55.1792 295.84 55.9515 296.884 56.9849C297.939 58.0183 298.759 59.318 299.345 60.8841C299.931 62.4395 300.224 64.2612 300.224 66.3493V68.2189H279.498V64.0002H293.816C293.816 63.0201 293.603 62.1518 293.177 61.3954C292.751 60.639 292.159 60.0478 291.403 59.6216C290.657 59.1848 289.789 58.9664 288.798 58.9664C287.765 58.9664 286.849 59.2061 286.05 59.6855C285.261 60.1543 284.643 60.7882 284.196 61.5872C283.749 62.3755 283.52 63.2544 283.509 64.2239V68.2349C283.509 69.4494 283.733 70.4988 284.18 71.383C284.638 72.2672 285.283 72.949 286.114 73.4284C286.945 73.9078 287.93 74.1476 289.07 74.1476C289.826 74.1476 290.519 74.041 291.147 73.8279C291.776 73.6149 292.314 73.2953 292.761 72.8691C293.209 72.443 293.55 71.921 293.784 71.3031L300.08 71.7186C299.761 73.2314 299.105 74.5524 298.115 75.6816C297.135 76.8003 295.867 77.6738 294.311 78.3024C292.767 78.9203 290.982 79.2292 288.958 79.2292Z" fill="#0A1739"/>
<path d="M260.504 78.7496V54.2041H267.104V58.4868H267.359C267.807 56.9633 268.558 55.8128 269.613 55.0351C270.667 54.2467 271.882 53.8525 273.256 53.8525C273.597 53.8525 273.964 53.8738 274.359 53.9165C274.753 53.9591 275.099 54.0177 275.397 54.0922V60.1327C275.078 60.0368 274.636 59.9516 274.071 59.877C273.506 59.8025 272.99 59.7652 272.521 59.7652C271.52 59.7652 270.625 59.9836 269.836 60.4204C269.059 60.8465 268.441 61.4431 267.983 62.2101C267.535 62.9772 267.311 63.8614 267.311 64.8628V78.7496H260.504Z" fill="#0A1739"/>
<path d="M248.248 68.2986V54.2041H255.056V78.7496H248.52V74.2911H248.264C247.71 75.7293 246.789 76.8852 245.5 77.7588C244.221 78.6324 242.661 79.0692 240.817 79.0692C239.177 79.0692 237.733 78.6963 236.487 77.9506C235.24 77.2048 234.266 76.1448 233.562 74.7705C232.87 73.3962 232.518 71.7503 232.508 69.8327V54.2041H239.315V68.6182C239.326 70.067 239.715 71.2123 240.482 72.0539C241.249 72.8955 242.277 73.3163 243.566 73.3163C244.386 73.3163 245.153 73.1299 245.867 72.757C246.581 72.3735 247.156 71.8089 247.593 71.0631C248.04 70.3174 248.259 69.3959 248.248 68.2986Z" fill="#0A1739"/>
<path d="M217.186 79.2292C214.672 79.2292 212.51 78.6966 210.699 77.6312C208.898 76.5552 207.513 75.0637 206.544 73.1568C205.585 71.2498 205.105 69.0552 205.105 66.573C205.105 64.0588 205.59 61.8535 206.56 59.9572C207.54 58.0502 208.93 56.5641 210.73 55.4988C212.531 54.4228 214.672 53.8848 217.154 53.8848C219.296 53.8848 221.171 54.2736 222.779 55.0513C224.388 55.829 225.661 56.921 226.599 58.3272C227.536 59.7335 228.053 61.3848 228.149 63.2811H221.725C221.544 62.0559 221.064 61.0705 220.287 60.3248C219.52 59.5684 218.513 59.1902 217.266 59.1902C216.212 59.1902 215.29 59.4778 214.502 60.0531C213.724 60.6177 213.117 61.4434 212.68 62.53C212.243 63.6167 212.025 64.9324 212.025 66.4771C212.025 68.0431 212.238 69.3748 212.664 70.4721C213.101 71.5694 213.713 72.4057 214.502 72.981C215.29 73.5563 216.212 73.8439 217.266 73.8439C218.044 73.8439 218.742 73.6841 219.36 73.3645C219.988 73.0449 220.505 72.5815 220.91 71.9743C221.325 71.3564 221.597 70.6159 221.725 69.753H228.149C228.042 71.628 227.531 73.2793 226.615 74.7069C225.709 76.1238 224.457 77.2317 222.859 78.0307C221.261 78.8297 219.37 79.2292 217.186 79.2292Z" fill="#0A1739"/>
<path d="M190.388 79.2292C187.863 79.2292 185.69 78.7179 183.868 77.6951C182.057 76.6618 180.661 75.2022 179.681 73.3166C178.701 71.4203 178.211 69.1777 178.211 66.589C178.211 64.0641 178.701 61.8482 179.681 59.9412C180.661 58.0343 182.041 56.5481 183.82 55.4828C185.61 54.4174 187.708 53.8848 190.116 53.8848C191.735 53.8848 193.243 54.1458 194.638 54.6678C196.045 55.1792 197.27 55.9515 198.314 56.9849C199.369 58.0183 200.189 59.318 200.775 60.8841C201.361 62.4395 201.654 64.2612 201.654 66.3493V68.2189H180.928V64.0002H195.246C195.246 63.0201 195.033 62.1518 194.607 61.3954C194.18 60.639 193.589 60.0478 192.833 59.6216C192.087 59.1848 191.219 58.9664 190.228 58.9664C189.195 58.9664 188.278 59.2061 187.479 59.6855C186.691 60.1543 186.073 60.7882 185.626 61.5872C185.178 62.3755 184.949 63.2544 184.939 64.2239V68.2349C184.939 69.4494 185.162 70.4988 185.61 71.383C186.068 72.2672 186.712 72.949 187.543 73.4284C188.374 73.9078 189.36 74.1476 190.5 74.1476C191.256 74.1476 191.949 74.041 192.577 73.8279C193.206 73.6149 193.744 73.2953 194.191 72.8691C194.638 72.443 194.979 71.921 195.214 71.3031L201.51 71.7186C201.19 73.2314 200.535 74.5524 199.544 75.6816C198.564 76.8003 197.297 77.6738 195.741 78.3024C194.196 78.9203 192.412 79.2292 190.388 79.2292Z" fill="#0A1739"/>
<path d="M167.598 55.4349C167.47 54.1459 166.921 53.1444 165.952 52.4307C164.982 51.7169 163.667 51.36 162.005 51.36C160.875 51.36 159.922 51.5198 159.144 51.8394C158.366 52.1484 157.77 52.5798 157.354 53.1338C156.95 53.6878 156.747 54.3163 156.747 55.0194C156.726 55.6054 156.848 56.1167 157.115 56.5535C157.392 56.9903 157.77 57.3685 158.249 57.6881C158.729 57.9971 159.283 58.2687 159.911 58.5031C160.54 58.7268 161.211 58.9186 161.925 59.0784L164.865 59.7815C166.293 60.1011 167.603 60.5273 168.796 61.0599C169.989 61.5926 171.023 62.2478 171.896 63.0255C172.77 63.8032 173.446 64.7194 173.926 65.7741C174.416 66.8287 174.666 68.0379 174.677 69.4015C174.666 71.4044 174.155 73.1409 173.143 74.6111C172.141 76.0706 170.692 77.2052 168.796 78.0148C166.911 78.8138 164.636 79.2133 161.973 79.2133C159.331 79.2133 157.029 78.8085 155.069 77.9988C153.12 77.1892 151.596 75.9907 150.499 74.4033C149.412 72.8053 148.842 70.8291 148.789 68.4747H155.485C155.559 69.572 155.874 70.4882 156.428 71.2233C156.992 71.9477 157.743 72.4964 158.681 72.8692C159.629 73.2314 160.7 73.4126 161.893 73.4126C163.065 73.4126 164.082 73.2421 164.945 72.9012C165.819 72.5603 166.495 72.0862 166.974 71.479C167.454 70.8717 167.694 70.1739 167.694 69.3856C167.694 68.6505 167.475 68.0326 167.038 67.5319C166.612 67.0312 165.984 66.605 165.153 66.2535C164.332 65.9019 163.326 65.5823 162.132 65.2947L158.569 64.3998C155.81 63.7286 153.631 62.6792 152.033 61.2517C150.435 59.8241 149.641 57.9012 149.652 55.4829C149.641 53.5013 150.169 51.7702 151.234 50.2893C152.31 48.8085 153.786 47.6526 155.661 46.8216C157.536 45.9907 159.666 45.5752 162.053 45.5752C164.482 45.5752 166.602 45.9907 168.413 46.8216C170.234 47.6526 171.651 48.8085 172.663 50.2893C173.675 51.7702 174.197 53.4854 174.229 55.4349H167.598Z" fill="#0A1739"/>
</svg>
