<svg width="45" height="45" viewBox="0 0 45 45" fill="none" xmlns="http://www.w3.org/2000/svg">
<path d="M30.9319 11.0159C30.8349 8.75379 29.8947 6.62761 28.396 5.13106C26.8136 3.54899 24.6306 2.57136 22.2181 2.57136C17.5196 2.57136 13.5828 6.41403 13.3824 11.0605L10.7779 12.2593C10.751 11.6848 10.7623 11.1173 10.7779 10.9249C11.12 6.7248 13.1145 3.57231 16.7031 1.54904C18.511 0.532543 20.3714 0.0155487 22.2181 0C24.0649 0.0155487 25.9233 0.532543 27.7312 1.54904C31.3197 3.57037 33.3142 6.7248 33.6564 10.9249C33.6758 11.1542 33.697 11.7517 33.6564 12.2593L30.9319 11.0159Z" fill="#D9AD4E"/>
<path d="M34.456 13.5802C34.1353 14.3285 33.446 14.9263 32.962 15.5872L30.9571 14.7359L23.1112 11.3949C22.7205 11.2277 22.2792 11.2239 21.8846 11.3832L10.8409 16.0245C10.3394 15.422 9.64466 14.688 9.25781 14.0039C10.603 13.4558 12.1376 12.8118 13.4808 12.254C16.0449 11.1869 18.6071 10.116 21.1906 9.09563C22.2209 8.66998 23.2259 8.94403 23.4553 9.03732C25.9339 10.0208 28.4513 11.0761 30.959 12.1218C31.964 12.5397 32.9652 12.9556 33.9663 13.3657L34.456 13.5802Z" fill="#D9AD4E"/>
<path d="M9.32955 28.9445C9.64774 34.099 15.9992 39.1325 21.6466 42.1639C22.1857 42.4533 22.8312 42.4533 23.3703 42.164C29.0177 39.1337 35.3692 34.1117 35.6873 28.9571C35.8077 24.3281 35.7852 22.7292 35.7381 22.3788H38.1849V28.9571C37.4536 35.7265 30.5755 41.1452 23.8601 44.3694C23.0054 44.7798 22.0114 44.7798 21.1568 44.3693C14.4414 41.1437 7.5633 35.7139 6.83203 28.9445V22.3662H9.27874C9.23171 22.7165 9.20915 24.3155 9.32955 28.9445Z" fill="#D9AD4E"/>
<path d="M23.9669 36.3234C23.9669 36.7355 23.7822 37.1048 23.4887 37.3516C23.3798 37.443 23.3157 37.5751 23.3157 37.717V39.0503C23.3157 39.4293 23.0046 39.7403 22.6256 39.7403H22.6236C22.2445 39.7403 21.9335 39.4293 21.9335 39.0503V37.7189C21.9335 37.5751 21.8655 37.441 21.7547 37.3477C21.4009 37.0484 21.2045 36.5664 21.3095 36.0455C21.4125 35.5343 21.8246 35.1184 22.3359 35.0135C23.2049 34.8327 23.9688 35.4916 23.9688 36.3254L23.9669 36.3234Z" fill="#D9AD4E"/>
<path d="M28.956 29.49C28.5459 29.7019 28.1746 29.4764 27.9413 29.1868C27.4495 28.5687 26.9499 27.9449 26.4542 27.3326C26.3336 27.1888 26.2384 27.0255 26.0712 27.1169C25.8418 27.2393 26.0051 27.4765 26.0051 27.4765C26.0051 27.4765 26.736 28.3997 26.9849 28.7145C27.1909 28.9769 27.3989 29.2373 27.5953 29.5114C27.9413 29.9934 28.0657 30.3316 27.6866 30.627C27.2045 31.0002 26.806 30.8622 26.4367 30.4015C25.9565 29.7951 25.5211 29.1946 25.0409 28.5862C24.9262 28.4366 24.7027 28.2908 24.5685 28.4171C24.4791 28.5007 24.5121 28.6698 24.6074 28.7942C25.039 29.3714 25.4919 29.9331 25.9079 30.522C26.2384 30.9885 26.285 31.2975 25.9468 31.5521C25.4822 31.9039 25.1984 31.731 24.8329 31.3034C24.3022 30.6775 23.2855 29.3559 23.2855 29.3559C23.2855 29.3559 23.1222 29.2004 22.9881 29.3734C22.9006 29.4861 22.9648 29.6319 22.9648 29.6319C22.9648 29.6319 23.7501 30.7028 24.1506 31.2295C24.378 31.5288 24.4694 31.8165 24.1603 32.1158C23.9776 32.2965 23.8862 32.4637 23.6529 32.3626C23.4099 32.2557 23.4021 32.0711 23.4274 31.8379C23.5382 30.7922 23.1319 30.3296 22.0666 30.2713C21.8684 30.2577 21.8042 30.1489 21.7264 30.0012C21.394 29.3695 21.0888 29.216 20.4084 29.3812C20.1441 29.4453 20.008 29.4123 19.8777 29.144C19.4073 28.182 18.5811 28.0712 17.858 28.8467C17.7627 28.9516 17.6713 29.0605 17.5897 29.1751C17.4478 29.3753 17.3098 29.4123 17.1309 29.2082C16.3261 28.2869 15.3386 27.6242 14.2072 27.1966C13.9235 27.0893 13.7674 27.0047 13.6559 27.0047C13.3883 27.5622 13.4024 27.5075 13.2061 28.0479C13.0797 28.3997 12.9125 28.3919 12.5607 28.3044C11.6295 28.0731 10.189 27.2976 8.74079 26.2403C8.09539 25.768 7.44999 25.2413 6.84931 24.6796C6.81432 22.1452 6.79099 18.4174 6.78127 16.4252C6.77738 15.5934 7.27309 14.8393 8.04096 14.5166C8.63192 14.2678 9.24816 14.0074 9.45422 13.9238C9.84107 14.608 10.3018 15.2571 10.8033 15.8596C12.4052 17.7896 14.4113 19.2551 15.706 19.9101C16.1142 20.12 16.2659 20.2988 16.0676 20.7516C15.9587 21.0024 15.638 21.3464 15.9159 21.5602C16.2834 21.8459 16.6994 22.1821 17.2456 22.05C17.6539 21.9508 17.858 21.7487 18.2681 21.6496C18.4139 21.6127 18.4917 21.599 18.552 21.6496C18.7211 21.7895 18.587 21.912 18.5209 22.0616C18.2448 22.668 18.1185 22.9926 17.8541 23.6476C17.6772 24.0888 17.8794 24.8118 18.2506 25.0586C18.8105 25.4299 19.8019 25.4085 20.3812 25.1403C20.908 24.8973 21.3338 24.5164 21.637 24.0402C21.9345 23.5776 22.2941 23.6787 22.7879 23.6903C24.2147 23.7331 24.969 24.1413 26.2287 24.6913C27.9141 25.4318 28.439 27.0586 29.2982 28.4346C29.5159 28.7845 29.3934 29.2723 28.9541 29.4997L28.956 29.49Z" fill="#D9AD4E"/>
<path d="M37.8903 23.1463C37.8786 23.1599 37.867 23.1755 37.8553 23.1891C37.3227 23.8246 36.722 24.4408 36.0455 25.0141C35.2387 25.6983 34.3231 26.3202 33.2909 26.843C32.6941 27.1462 32.7096 27.1754 32.4025 26.569C31.969 25.708 31.9748 25.7196 31.1156 26.1667C30.5966 26.4407 30.4488 26.7439 30.1203 27.2007C29.8948 27.5155 29.7179 27.6185 29.4904 27.2007C29.2163 26.707 28.9034 26.2386 28.6254 25.7507C27.4823 23.8732 24.9377 23.4204 24.7083 23.3407C23.9249 23.0686 23.1201 22.9714 22.29 22.8898C21.7243 22.8373 21.3647 22.9189 21.11 23.4806C20.9292 23.8732 20.5735 24.1745 20.208 24.4252C19.8775 24.6507 19.516 24.7673 19.1097 24.6818C18.4507 24.5477 18.3263 24.2561 18.6159 23.6439C18.9833 22.8626 19.3468 22.0793 19.6501 21.2727C19.8367 20.7693 20.1439 20.5478 20.659 20.5264C21.4288 20.4895 22.2045 20.4584 22.9646 20.3242C23.5244 20.2232 24.0279 20.3204 24.5139 20.6488C24.8891 20.9015 25.3245 21.0686 25.7483 21.2416C26.7553 21.6614 27.7253 21.5332 28.672 21.0103C28.9306 20.8685 29.401 20.4935 29.401 20.4935C29.401 20.4935 29.2299 20.1182 29.0083 19.7587C28.7634 19.3525 28.8567 19.1173 29.2474 18.8627C30.3186 18.1649 31.6657 16.9618 32.7388 15.4925C33.2228 14.8317 33.6505 14.1164 33.9713 13.3662C34.8227 13.718 35.6703 14.0601 36.514 14.3983C36.514 14.3983 36.9153 14.5741 37.228 14.718C38.343 15.2309 38.1938 16.5912 38.1938 16.5912V22.835L37.8903 23.1463Z" fill="#D9AD4E"/>
<path d="M17.1488 30.9174C17.1294 30.3946 17.8486 29.3334 18.3346 29.1643C18.9548 28.9486 19.6254 29.4753 19.5341 30.138C19.4388 30.8377 19.0325 31.3858 18.4843 31.7804C17.9303 32.1807 17.176 31.6657 17.1488 30.9155V30.9174Z" fill="#D9AD4E"/>
<path d="M20.9535 32.0018C20.7338 32.3847 19.9582 32.8473 19.3983 32.4352C19.1845 32.2778 19.0679 32.0718 19.0445 31.8152C19.0037 31.3391 19.7755 30.1962 20.2284 30.0485C20.5861 29.9319 20.8893 30.0427 21.1459 30.2876C21.4123 30.5441 21.4745 30.8668 21.3501 31.2108C21.2548 31.4751 21.1712 31.6189 20.9516 32.0018H20.9535Z" fill="#D9AD4E"/>
<path d="M21.1097 32.0284C21.2283 31.7815 21.2944 31.4628 21.4926 31.2432C21.7162 30.9963 21.9845 30.8408 22.3324 30.9575C22.661 31.0663 22.7601 31.3481 22.8165 31.6513C22.8631 31.9001 22.8145 32.1411 22.7173 32.3704C22.4977 32.8874 21.9495 33.2198 21.516 33.109C20.6412 32.8214 21.1097 32.0284 21.1097 32.0284Z" fill="#D9AD4E"/>
<path d="M16.1248 30.8311C15.5883 30.8583 15.2694 30.5901 15.2364 30.0848C15.2053 29.6416 15.5397 29.01 15.8157 28.9886C16.0665 28.9691 16.986 29.9176 16.9879 30.1975C16.9879 30.5026 16.5719 30.8097 16.1267 30.8311H16.1248Z" fill="#D9AD4E"/>
</svg>
