<svg width="102" height="114" viewBox="0 0 102 114" fill="none" xmlns="http://www.w3.org/2000/svg">
<path d="M72.1303 28.4233C71.8888 22.792 69.5482 17.499 65.8174 13.7735C61.8781 9.83498 56.4435 7.40125 50.4379 7.40125C38.7413 7.40125 28.9409 16.9673 28.4419 28.5343L21.9582 31.5188C21.8914 30.0887 21.9195 28.6758 21.9582 28.1968C22.81 17.741 27.7752 9.89304 36.7086 4.85623C41.2092 2.32573 45.8405 1.03871 50.4379 1C55.0353 1.03871 59.6617 2.32573 64.1623 4.85623C73.0958 9.8882 78.061 17.741 78.9127 28.1968C78.9611 28.7678 79.0139 30.2552 78.9127 31.5188L72.1303 28.4233Z" fill="#D9AD4E"/>
<path d="M80.905 34.8075C80.1065 36.6703 78.3907 38.1585 77.1857 39.8036L72.1946 37.6845L52.6629 29.3672C51.6902 28.9511 50.5917 28.9414 49.6093 29.3382L22.1169 40.8924C20.8683 39.3925 19.1388 37.5653 18.1758 35.8622C21.5246 34.4978 25.3447 32.8945 28.6887 31.5058C35.0719 28.8495 41.4501 26.1835 47.8816 23.6434C50.4465 22.5837 52.9485 23.266 53.5195 23.4982C59.6897 25.9465 65.9567 28.5737 72.1994 31.1768C74.7014 32.2171 77.1936 33.2525 79.6859 34.2734L80.905 34.8075Z" fill="#D9AD4E"/>
<path d="M18.3463 73.054C19.1384 85.8859 34.9499 98.4165 49.0088 105.963C50.3509 106.683 51.9576 106.683 53.2998 105.963C67.3587 98.4194 83.1701 85.9173 83.9622 73.0854C84.262 61.5618 84.2058 57.5813 84.0887 56.7092H90.1796V73.0854C88.3592 89.9374 71.2367 103.427 54.5191 111.453C52.3915 112.475 49.917 112.475 47.7895 111.453C31.0719 103.423 13.9493 89.906 12.1289 73.054V56.6777H18.2198C18.1027 57.5498 18.0466 61.5303 18.3463 73.054Z" fill="#D9AD4E"/>
<path d="M54.7873 91.4229C54.7873 92.4486 54.3275 93.3679 53.5968 93.9824C53.3258 94.2098 53.1661 94.5388 53.1661 94.892V98.2112C53.1661 99.1547 52.3918 99.9288 51.4481 99.9288H51.4433C50.4996 99.9288 49.7253 99.1547 49.7253 98.2112V94.8969C49.7253 94.5388 49.5559 94.205 49.2801 93.9727C48.3993 93.2276 47.9105 92.0277 48.1719 90.731C48.4284 89.4585 49.4543 88.423 50.727 88.1618C52.8902 87.7118 54.7921 89.352 54.7921 91.4277L54.7873 91.4229Z" fill="#D9AD4E"/>
<path d="M67.2026 74.4092C66.1815 74.9366 65.2572 74.3754 64.6765 73.6544C63.4521 72.1158 62.2084 70.5627 60.9744 69.0386C60.6743 68.6805 60.4372 68.2741 60.021 68.5015C59.45 68.8063 59.8565 69.3966 59.8565 69.3966C59.8565 69.3966 61.6761 71.6949 62.2955 72.4787C62.8085 73.1319 63.3263 73.7802 63.8151 74.4624C64.6765 75.6624 64.9862 76.5043 64.0425 77.2397C62.8424 78.1687 61.8503 77.8252 60.9308 76.6784C59.7355 75.1689 58.6515 73.6738 57.4562 72.1594C57.1706 71.7868 56.6141 71.4239 56.2802 71.7384C56.0576 71.9465 56.1399 72.3674 56.377 72.6771C57.4513 74.1141 58.5789 75.5124 59.6145 76.9784C60.4372 78.1397 60.5534 78.909 59.7113 79.5428C58.5547 80.4185 57.8482 79.9879 56.9384 78.9235C55.6172 77.3655 53.0862 74.0754 53.0862 74.0754C53.0862 74.0754 52.6797 73.6883 52.3458 74.1189C52.128 74.3995 52.2877 74.7624 52.2877 74.7624C52.2877 74.7624 54.2428 77.4284 55.2397 78.7396C55.8059 79.4847 56.0334 80.2008 55.2639 80.946C54.809 81.3959 54.5816 81.812 54.0009 81.5604C53.3959 81.2943 53.3766 80.8347 53.4395 80.254C53.7153 77.651 52.7039 76.4994 50.0519 76.3543C49.5583 76.3204 49.3986 76.0495 49.2051 75.6817C48.3775 74.1092 47.6177 73.727 45.924 74.1383C45.2658 74.2979 44.9271 74.2157 44.6028 73.548C43.4317 71.153 41.375 70.8772 39.5747 72.8077C39.3376 73.069 39.1101 73.3399 38.9069 73.6254C38.5536 74.1238 38.21 74.2157 37.7648 73.7076C35.7613 71.4142 33.3029 69.7643 30.4864 68.6999C29.7801 68.4329 29.3915 68.2223 29.1139 68.2223C28.4478 69.6101 28.4829 69.474 27.9941 70.8191C27.6796 71.6949 27.2634 71.6755 26.3875 71.4578C24.0694 70.882 20.4835 68.9515 16.8781 66.3194C15.2715 65.1436 13.6648 63.8324 12.1694 62.4341C12.0823 56.1248 12.0243 46.8447 12.0001 41.8853C11.9904 39.8144 13.2244 37.9371 15.136 37.1339C16.6071 36.5146 18.1412 35.8663 18.6542 35.6582C19.6172 37.3613 20.7641 38.9774 22.0127 40.4773C26.0003 45.2818 30.9945 48.93 34.2176 50.5606C35.2338 51.0831 35.6113 51.5283 35.1177 52.6556C34.8467 53.2798 34.0482 54.1362 34.7402 54.6684C35.6548 55.3797 36.6905 56.2167 38.0503 55.8877C39.0666 55.6409 39.5747 55.1377 40.5958 54.891C40.9588 54.799 41.1524 54.7652 41.3024 54.891C41.7234 55.2393 41.3895 55.5442 41.225 55.9167C40.5378 57.4263 40.2232 58.2343 39.5651 59.8649C39.1247 60.9632 39.628 62.7631 40.5523 63.3776C41.946 64.3017 44.4141 64.2485 45.8562 63.5808C47.1677 62.976 48.2275 62.0277 48.9824 60.8423C49.7229 59.6907 50.6181 59.9423 51.8473 59.9713C55.3994 60.0778 57.2771 61.0938 60.413 62.4631C64.6087 64.3066 65.9154 68.3563 68.0544 71.782C68.5964 72.6529 68.2915 73.8673 67.1978 74.4334L67.2026 74.4092Z" fill="#D9AD4E"/>
<path d="M89.4385 58.6165C89.4094 58.6504 89.3804 58.6891 89.3514 58.723C88.0254 60.3052 86.53 61.8389 84.8459 63.2663C82.8376 64.9694 80.5582 66.5177 77.9885 67.8192C76.5029 68.574 76.5416 68.6466 75.777 67.137C74.6978 64.9936 74.7123 65.0226 72.5733 66.1355C71.2812 66.8177 70.9134 67.5725 70.0955 68.7095C69.5342 69.4933 69.0938 69.7498 68.5276 68.7095C67.8452 67.4805 67.0661 66.3145 66.3741 65.1C63.5285 60.4261 57.1938 59.2988 56.6228 59.1004C54.6725 58.423 52.669 58.1811 50.6026 57.9779C49.1943 57.8472 48.2991 58.0504 47.6651 59.4487C47.215 60.4261 46.3294 61.1761 45.4196 61.8002C44.5969 62.3615 43.6968 62.6518 42.6854 62.4389C41.0449 62.105 40.7351 61.3793 41.4562 59.8552C42.3708 57.9101 43.2758 55.9602 44.0307 53.9523C44.4953 52.6991 45.2599 52.1476 46.5424 52.0943C48.4588 52.0024 50.3897 51.925 52.2819 51.5911C53.6756 51.3395 54.929 51.5814 56.1388 52.3991C57.0728 53.0281 58.1568 53.4442 59.2118 53.8749C61.7186 54.92 64.1334 54.6006 66.4902 53.2991C67.1338 52.9459 68.3049 52.0126 68.3049 52.0126C68.3049 52.0126 67.8791 51.0783 67.3274 50.1831C66.7177 49.1719 66.95 48.5865 67.9227 47.9526C70.5892 46.2156 73.9428 43.2206 76.6142 39.5628C77.8192 37.9177 78.8838 36.1372 79.6823 34.2695C81.802 35.1453 83.9119 35.9969 86.0122 36.8387C86.0122 36.8387 87.0112 37.2766 87.7898 37.6348C90.5655 38.9116 90.1941 42.2978 90.1941 42.2978V57.8414L89.4385 58.6165Z" fill="#D9AD4E"/>
<path d="M37.8056 77.96C37.7573 76.6585 39.5478 74.0167 40.7577 73.5958C42.3014 73.0587 43.971 74.3699 43.7435 76.0198C43.5064 77.7617 42.495 79.1261 41.1303 80.1083C39.7511 81.105 37.8734 79.8228 37.8056 77.9552V77.96Z" fill="#D9AD4E"/>
<path d="M47.2874 80.6602C46.7405 81.6134 44.8096 82.7649 43.4159 81.7392C42.8836 81.3472 42.5932 80.8344 42.5351 80.1957C42.4335 79.0103 44.3547 76.1653 45.4823 75.7976C46.3727 75.5073 47.1277 75.783 47.7665 76.3927C48.4295 77.0314 48.5843 77.8345 48.2746 78.6909C48.0375 79.349 47.8294 79.707 47.2825 80.6602H47.2874Z" fill="#D9AD4E"/>
<path d="M47.6713 80.7291C47.9665 80.1146 48.1311 79.3211 48.6247 78.7744C49.1812 78.1599 49.849 77.7728 50.7153 78.0631C51.5331 78.3341 51.7799 79.0357 51.9203 79.7905C52.0364 80.4098 51.9154 81.0098 51.6735 81.5807C51.1266 82.8677 49.7619 83.6951 48.6827 83.4193C46.505 82.7032 47.6713 80.7291 47.6713 80.7291Z" fill="#D9AD4E"/>
<path d="M35.2596 77.7477C33.9239 77.8155 33.1303 77.1478 33.048 75.8898C32.9706 74.7866 33.8029 73.2141 34.4901 73.1609C35.1144 73.1125 37.4034 75.4737 37.4083 76.1704C37.4083 76.93 36.3726 77.6945 35.2644 77.7477H35.2596Z" fill="#D9AD4E"/>
</svg>
